<svg id="svg" version="1.1" xmlns="http://www.w3.org/2000/svg" xmlns:xlink="http://www.w3.org/1999/xlink" width="400" height="266.6666666666667" viewBox="0, 0, 400,266.6666666666667"><g id="svgg"><path id="path0" d="M197.414 15.533 C 197.141 15.609,196.317 15.675,195.583 15.679 C 194.850 15.684,193.200 15.753,191.917 15.834 C 190.633 15.915,187.979 16.023,186.018 16.073 C 184.056 16.124,181.356 16.215,180.018 16.275 C 178.679 16.336,176.871 16.408,176.000 16.436 C 175.129 16.464,174.154 16.529,173.833 16.581 C 173.512 16.634,171.375 16.711,169.083 16.754 C 166.792 16.796,162.817 16.946,160.250 17.086 C 157.683 17.226,153.933 17.374,151.917 17.415 C 149.900 17.456,146.808 17.571,145.046 17.670 C 143.283 17.769,141.746 17.832,141.629 17.811 C 141.512 17.790,140.892 17.825,140.250 17.890 C 139.608 17.954,137.396 18.044,135.333 18.089 C 133.271 18.134,130.549 18.219,129.284 18.278 L 126.985 18.384 127.079 18.817 C 127.174 19.250,128.401 25.609,128.996 28.750 C 129.169 29.667,129.463 31.204,129.649 32.167 C 129.835 33.129,131.343 41.004,133.000 49.667 C 135.865 64.642,136.224 66.516,136.993 70.542 C 137.173 71.481,138.034 76.000,138.908 80.583 C 139.782 85.167,140.537 89.085,140.585 89.292 L 140.673 89.667 200.087 89.667 C 234.313 89.667,259.500 89.604,259.500 89.520 C 259.500 89.439,260.666 83.270,262.090 75.811 C 265.320 58.902,265.262 59.203,265.678 57.042 C 265.867 56.056,266.164 54.500,266.338 53.583 C 268.955 39.774,273.028 18.590,273.083 18.501 C 273.172 18.356,269.479 18.159,265.167 18.077 C 263.379 18.043,259.629 17.897,256.833 17.753 C 254.037 17.608,250.100 17.456,248.083 17.414 C 246.067 17.373,243.179 17.267,241.667 17.178 C 236.945 16.902,235.520 16.842,232.000 16.770 C 228.319 16.696,223.487 16.506,222.868 16.411 C 222.532 16.360,220.211 16.273,214.417 16.093 C 212.462 16.033,208.835 15.891,205.667 15.751 C 204.429 15.696,202.817 15.584,202.083 15.502 C 200.492 15.324,198.107 15.340,197.414 15.533 M284.599 18.781 C 284.727 18.876,284.520 20.230,283.901 23.333 C 283.417 25.762,281.813 33.862,280.336 41.333 C 278.860 48.804,277.358 56.379,277.000 58.167 C 276.364 61.336,274.673 69.880,271.993 83.459 L 270.670 90.167 273.262 93.292 C 303.914 130.244,330.760 176.195,342.598 211.972 L 343.552 214.854 344.234 214.743 C 347.241 214.255,351.339 212.895,354.829 211.227 C 375.154 201.511,388.231 176.712,391.860 141.000 C 392.028 139.348,392.097 139.037,392.194 139.500 C 392.308 140.050,392.232 138.607,392.084 137.417 C 392.049 137.142,391.977 136.279,391.924 135.500 C 391.870 134.721,391.796 133.896,391.759 133.667 C 391.644 132.958,391.390 130.884,391.259 129.583 C 391.212 129.125,391.097 128.342,391.002 127.844 C 390.908 127.346,390.787 126.446,390.735 125.844 C 390.683 125.242,390.528 124.188,390.392 123.500 C 390.255 122.813,390.079 121.725,389.999 121.083 C 389.920 120.442,389.817 119.767,389.771 119.583 C 389.725 119.400,389.604 118.800,389.503 118.250 C 389.014 115.604,388.627 113.653,388.393 112.667 C 388.252 112.071,388.077 111.208,388.004 110.750 C 387.931 110.292,387.777 109.579,387.663 109.167 C 387.548 108.754,387.355 107.967,387.235 107.417 C 386.877 105.785,386.531 104.315,386.252 103.250 C 386.109 102.700,385.836 101.650,385.646 100.917 C 385.315 99.636,384.944 98.363,384.383 96.583 C 384.238 96.125,384.026 95.375,383.910 94.917 C 383.795 94.458,383.625 93.858,383.532 93.583 C 383.439 93.308,383.196 92.521,382.991 91.833 C 382.786 91.146,382.559 90.433,382.487 90.250 C 382.415 90.067,382.266 89.617,382.158 89.250 C 382.049 88.883,381.856 88.336,381.729 88.034 C 381.602 87.732,381.432 87.207,381.350 86.868 C 381.172 86.124,380.724 84.841,380.306 83.877 C 380.138 83.488,380.000 83.071,380.000 82.950 C 380.000 82.829,379.850 82.419,379.667 82.039 C 379.483 81.660,379.333 81.252,379.332 81.133 C 379.332 81.014,379.213 80.692,379.068 80.417 C 378.924 80.142,378.695 79.579,378.561 79.167 C 378.307 78.387,378.270 78.290,377.695 76.917 C 376.384 73.785,376.000 72.836,376.000 72.735 C 376.000 72.672,375.860 72.312,375.690 71.935 C 375.519 71.558,375.059 70.537,374.668 69.667 C 374.277 68.796,373.741 67.621,373.478 67.056 C 373.215 66.491,373.000 65.970,373.000 65.899 C 373.000 65.756,371.088 61.801,369.866 59.417 C 369.444 58.592,368.915 57.542,368.692 57.083 C 368.469 56.625,368.239 56.212,368.183 56.167 C 368.126 56.121,367.896 55.671,367.672 55.167 C 367.447 54.663,367.138 54.063,366.985 53.833 C 366.734 53.460,366.113 52.342,365.226 50.667 C 365.056 50.346,364.860 50.058,364.792 50.028 C 364.723 49.997,364.667 49.882,364.667 49.771 C 364.667 49.661,364.217 48.832,363.667 47.930 C 363.117 47.028,362.667 46.237,362.667 46.171 C 362.667 46.105,362.517 45.916,362.333 45.750 C 362.150 45.584,362.000 45.316,362.000 45.155 C 362.000 44.993,361.944 44.836,361.875 44.806 C 361.719 44.736,360.000 42.024,360.000 41.847 C 360.000 41.776,359.850 41.583,359.667 41.417 C 359.483 41.251,359.333 41.037,359.333 40.941 C 359.333 40.783,358.547 39.531,358.324 39.333 C 358.153 39.182,355.919 35.756,355.797 35.458 C 355.731 35.298,355.600 35.167,355.505 35.167 C 355.411 35.167,355.332 35.073,355.329 34.958 C 355.327 34.844,355.065 34.412,354.747 34.000 C 354.428 33.587,353.963 32.950,353.713 32.583 C 352.733 31.147,351.308 29.519,349.814 28.129 C 348.954 27.330,348.137 26.571,348.000 26.443 C 347.863 26.315,347.506 26.086,347.208 25.934 C 346.910 25.782,346.667 25.585,346.667 25.496 C 346.667 25.406,346.595 25.333,346.508 25.333 C 346.421 25.333,346.028 25.116,345.633 24.850 C 344.460 24.059,343.102 23.359,342.404 23.185 C 342.045 23.096,341.225 22.822,340.583 22.577 C 337.253 21.304,334.679 20.935,327.250 20.667 C 324.500 20.568,319.813 20.380,316.833 20.248 C 313.854 20.117,310.142 19.966,308.583 19.914 C 303.832 19.755,294.249 19.340,291.250 19.165 C 289.692 19.074,287.667 18.956,286.750 18.904 C 285.833 18.852,284.933 18.772,284.750 18.727 C 284.556 18.679,284.493 18.702,284.599 18.781 M113.083 18.927 C 112.748 18.976,108.400 19.201,101.917 19.505 C 99.992 19.595,96.279 19.743,93.667 19.834 C 91.054 19.925,86.367 20.110,83.250 20.245 C 80.133 20.380,75.446 20.570,72.833 20.667 C 65.277 20.946,63.075 21.254,59.665 22.511 C 58.887 22.798,58.100 23.070,57.917 23.115 C 57.733 23.160,57.471 23.239,57.333 23.292 C 57.196 23.345,57.046 23.398,57.000 23.410 C 56.883 23.441,55.366 24.272,54.667 24.688 C 54.346 24.879,54.058 25.102,54.028 25.184 C 53.997 25.266,53.896 25.333,53.802 25.333 C 53.708 25.333,53.425 25.502,53.172 25.708 C 52.920 25.915,52.547 26.196,52.345 26.333 C 51.612 26.831,51.110 27.271,49.941 28.442 C 48.152 30.232,47.500 30.952,47.500 31.138 C 47.500 31.230,47.440 31.331,47.366 31.361 C 47.246 31.411,46.397 32.548,45.125 34.359 C 44.873 34.718,44.667 35.084,44.667 35.173 C 44.667 35.261,44.589 35.333,44.495 35.333 C 44.400 35.333,44.269 35.465,44.203 35.625 C 44.061 35.970,43.169 37.327,42.886 37.626 C 42.777 37.741,42.643 37.978,42.588 38.152 C 42.533 38.327,42.378 38.511,42.244 38.563 C 42.110 38.614,42.000 38.728,42.000 38.816 C 42.000 38.904,41.550 39.656,41.000 40.487 C 40.450 41.317,40.000 42.036,40.000 42.085 C 40.000 42.193,39.127 43.550,38.983 43.667 C 38.926 43.712,38.755 43.975,38.602 44.250 C 38.449 44.525,38.166 45.012,37.972 45.333 C 37.779 45.654,37.432 46.254,37.203 46.667 C 36.973 47.079,36.656 47.604,36.498 47.833 C 36.340 48.063,36.162 48.406,36.103 48.596 C 36.044 48.786,35.866 49.086,35.706 49.264 C 35.547 49.441,35.192 50.020,34.917 50.551 C 34.642 51.081,34.215 51.868,33.968 52.299 C 33.721 52.730,33.472 53.196,33.414 53.333 C 33.356 53.471,33.238 53.696,33.151 53.833 C 33.064 53.971,32.874 54.346,32.728 54.667 C 32.582 54.987,32.407 55.288,32.338 55.333 C 32.270 55.379,31.773 56.317,31.234 57.417 C 30.695 58.517,30.197 59.442,30.127 59.472 C 30.057 59.503,29.998 59.653,29.996 59.806 C 29.994 59.958,29.846 60.271,29.667 60.500 C 29.487 60.729,29.339 61.019,29.337 61.143 C 29.335 61.268,29.116 61.793,28.850 62.310 C 28.041 63.883,26.333 67.464,26.333 67.587 C 26.333 67.650,26.120 68.163,25.859 68.726 C 25.447 69.617,24.223 72.404,23.580 73.917 C 23.464 74.192,23.202 74.867,22.998 75.417 C 22.795 75.967,22.533 76.645,22.416 76.924 C 22.300 77.204,22.003 77.954,21.757 78.591 C 21.511 79.229,21.245 79.900,21.166 80.083 C 20.987 80.501,20.396 82.129,19.986 83.333 C 19.814 83.837,19.597 84.380,19.503 84.539 C 19.410 84.699,19.334 84.924,19.335 85.039 C 19.336 85.216,18.907 86.493,17.810 89.583 C 17.712 89.858,17.497 90.533,17.332 91.083 C 17.168 91.633,16.869 92.608,16.670 93.250 C 16.470 93.892,16.197 94.829,16.064 95.333 C 15.930 95.837,15.753 96.400,15.670 96.583 C 15.498 96.962,14.891 99.208,14.656 100.333 C 14.570 100.746,14.420 101.280,14.322 101.520 C 14.154 101.932,13.944 102.773,13.430 105.083 C 13.307 105.633,13.091 106.533,12.948 107.083 C 12.806 107.633,12.608 108.458,12.509 108.917 C 12.410 109.375,12.289 109.900,12.239 110.083 C 12.190 110.267,12.113 110.604,12.069 110.833 C 11.801 112.215,11.283 114.804,11.003 116.167 C 10.823 117.037,10.592 118.237,10.488 118.833 C 10.384 119.429,10.265 120.067,10.223 120.250 C 10.181 120.433,10.084 121.047,10.007 121.614 C 9.931 122.181,9.754 123.306,9.614 124.114 C 9.323 125.797,8.836 129.353,8.728 130.583 C 8.688 131.042,8.540 132.317,8.399 133.417 C 8.116 135.624,8.073 136.061,7.926 138.250 C 7.870 139.079,7.887 139.656,7.965 139.540 C 8.048 139.415,8.189 140.225,8.311 141.540 C 9.237 151.451,11.662 163.118,14.675 172.167 C 22.369 195.272,36.889 210.690,54.486 214.439 C 56.750 214.922,56.425 215.198,57.550 211.833 C 66.475 185.132,81.938 155.597,103.054 124.917 C 110.534 114.049,120.249 101.162,127.534 92.445 L 129.461 90.139 129.236 89.111 C 129.112 88.546,127.805 81.971,126.331 74.500 C 124.858 67.029,123.358 59.454,123.000 57.667 C 122.641 55.879,121.141 48.304,119.664 40.833 C 118.188 33.362,116.610 25.393,116.157 23.124 C 115.704 20.854,115.333 18.960,115.333 18.915 C 115.333 18.831,113.681 18.840,113.083 18.927 M160.090 47.753 C 162.853 48.455,165.204 50.296,166.376 52.675 C 167.210 54.368,167.310 55.034,167.310 58.917 C 167.310 63.826,166.840 65.345,164.656 67.507 C 159.716 72.396,151.764 70.614,149.217 64.047 C 148.547 62.317,148.550 55.539,149.222 53.787 C 150.950 49.282,155.710 46.639,160.090 47.753 M188.923 47.753 C 192.481 48.657,195.329 51.512,195.987 54.833 C 196.143 55.622,196.225 58.570,196.169 61.417 C 195.990 70.508,183.505 73.579,178.833 65.681 C 177.031 62.634,176.957 55.424,178.696 52.358 C 180.713 48.801,185.164 46.797,188.923 47.753 M217.757 47.756 C 221.275 48.665,223.812 51.091,224.720 54.417 C 225.031 55.553,225.088 56.794,225.035 61.282 C 224.925 70.611,211.915 73.644,207.455 65.381 C 206.391 63.410,205.943 57.851,206.605 54.833 C 207.395 51.230,210.309 48.478,214.250 47.612 C 215.019 47.443,216.832 47.518,217.757 47.756 M246.590 47.753 C 249.912 48.597,252.421 50.905,253.413 54.026 C 253.990 55.843,254.029 62.088,253.473 63.727 C 250.560 72.320,238.719 72.476,235.707 63.961 C 235.181 62.475,235.008 57.013,235.422 54.960 C 236.433 49.943,241.738 46.519,246.590 47.753 M84.007 50.070 C 94.189 51.334,102.133 60.248,102.211 70.500 C 102.222 72.004,102.225 73.966,102.220 77.500 C 102.207 87.554,94.461 96.421,84.366 97.939 C 73.205 99.616,63.114 92.545,60.552 81.250 C 60.059 79.073,60.107 68.714,60.621 66.500 C 63.156 55.592,72.964 48.701,84.007 50.070 M321.423 53.922 C 326.732 54.848,329.237 58.532,329.119 65.239 C 329.006 71.627,326.400 75.123,321.205 75.858 C 313.803 76.905,309.071 70.327,310.695 61.250 C 311.303 57.849,314.437 54.640,317.750 54.025 C 318.300 53.923,318.900 53.810,319.083 53.773 C 319.696 53.649,319.948 53.665,321.423 53.922 M303.200 72.683 C 305.469 73.152,308.128 75.080,309.204 77.036 C 310.931 80.174,311.036 86.472,309.414 89.673 C 306.088 96.235,296.363 96.263,292.875 89.720 C 291.398 86.948,291.397 80.250,292.873 77.434 C 294.762 73.832,299.103 71.835,303.200 72.683 M340.893 72.764 C 344.072 73.584,346.927 76.498,347.653 79.667 C 347.991 81.140,347.878 86.651,347.484 87.941 C 344.995 96.083,333.980 97.053,330.150 89.468 C 328.888 86.967,328.797 80.629,329.986 77.978 C 331.814 73.900,336.538 71.641,340.893 72.764 M321.917 91.397 C 326.799 92.462,329.151 96.020,329.154 102.349 C 329.159 109.310,325.744 113.333,319.833 113.333 C 313.061 113.333,309.140 107.001,310.700 98.583 C 311.624 93.599,316.802 90.281,321.917 91.397 M140.667 122.385 C 140.667 122.414,140.910 122.658,141.208 122.927 L 141.750 123.417 141.260 122.875 C 140.804 122.370,140.667 122.257,140.667 122.385 M136.833 122.552 C 136.833 122.581,137.077 122.825,137.375 123.094 L 137.917 123.583 137.427 123.042 C 136.971 122.537,136.833 122.423,136.833 122.552 M193.740 123.875 L 193.250 124.417 193.792 123.927 C 194.297 123.471,194.410 123.333,194.281 123.333 C 194.252 123.333,194.009 123.577,193.740 123.875 M155.073 124.542 L 154.583 125.083 155.125 124.594 C 155.423 124.325,155.667 124.081,155.667 124.052 C 155.667 123.923,155.529 124.037,155.073 124.542 M143.500 125.417 C 143.811 125.737,144.103 126.000,144.149 126.000 C 144.195 126.000,143.978 125.737,143.667 125.417 C 143.356 125.096,143.064 124.833,143.018 124.833 C 142.972 124.833,143.189 125.096,143.500 125.417 M171.979 132.500 C 172.081 141.321,172.214 141.160,164.833 141.159 C 160.847 141.158,160.169 141.120,159.629 140.871 C 158.866 140.518,153.051 135.172,152.427 134.250 C 151.894 133.461,151.855 131.573,152.362 131.066 C 152.609 130.819,152.609 130.759,152.357 130.317 C 152.028 129.739,151.768 129.726,146.258 130.021 C 144.328 130.125,142.525 130.219,142.250 130.230 C 141.659 130.254,141.460 130.614,141.773 131.094 C 142.783 132.640,142.261 133.888,139.542 136.437 C 133.920 141.705,135.272 141.073,129.500 141.131 C 122.792 141.199,122.293 140.912,122.196 136.922 L 122.142 134.708 120.529 135.327 C 110.635 139.130,101.854 144.665,94.583 151.680 C 91.638 154.523,79.601 176.413,73.285 190.417 C 62.089 215.235,54.437 242.623,53.635 260.745 L 53.583 261.906 54.167 262.020 C 54.487 262.082,55.293 262.255,55.957 262.402 C 56.622 262.550,57.963 262.689,58.939 262.710 L 60.714 262.750 61.361 261.167 C 61.717 260.296,62.157 259.227,62.338 258.792 C 62.519 258.356,62.809 257.644,62.984 257.208 C 63.465 256.007,64.172 254.291,64.340 253.917 C 64.422 253.733,64.723 252.983,65.008 252.250 C 65.294 251.517,65.627 250.692,65.749 250.417 C 65.871 250.142,66.173 249.395,66.421 248.758 C 66.848 247.658,66.963 247.379,67.557 246.000 C 67.695 245.679,67.918 245.117,68.052 244.750 C 68.256 244.193,69.295 241.638,69.815 240.417 C 69.893 240.233,70.109 239.708,70.295 239.250 C 70.939 237.667,71.530 236.248,71.765 235.725 C 71.894 235.436,72.000 235.131,72.000 235.048 C 72.000 234.964,72.150 234.585,72.333 234.206 C 72.517 233.827,72.667 233.415,72.667 233.291 C 72.667 233.168,72.729 232.995,72.805 232.908 C 72.938 232.757,73.341 231.832,74.019 230.125 C 74.192 229.690,74.475 228.977,74.648 228.542 C 75.013 227.621,75.937 225.356,76.773 223.333 C 77.634 221.249,78.004 220.338,78.333 219.500 C 78.732 218.484,79.317 217.067,79.691 216.210 C 79.861 215.822,80.000 215.467,80.000 215.422 C 80.000 215.377,80.450 214.393,81.000 213.236 C 81.550 212.080,82.000 211.110,82.000 211.081 C 82.000 211.053,82.288 210.517,82.640 209.890 C 82.993 209.263,83.529 208.300,83.832 207.750 C 84.134 207.200,84.466 206.600,84.568 206.417 C 84.671 206.233,85.166 205.448,85.669 204.672 C 86.172 203.896,86.658 203.136,86.750 202.983 C 86.842 202.831,87.254 202.238,87.667 201.665 C 88.079 201.092,88.492 200.508,88.583 200.367 C 89.049 199.648,91.224 196.951,92.844 195.083 C 95.714 191.775,100.072 187.681,103.500 185.074 C 104.096 184.621,104.621 184.206,104.667 184.153 C 104.712 184.100,105.313 183.671,106.000 183.200 C 106.688 182.729,107.571 182.116,107.964 181.838 C 108.357 181.561,108.708 181.333,108.744 181.333 C 108.780 181.333,109.261 181.033,109.813 180.667 C 110.365 180.300,110.857 180.000,110.905 180.000 C 110.954 180.000,111.396 179.743,111.888 179.428 C 113.698 178.270,119.368 175.538,122.333 174.395 C 122.929 174.166,123.679 173.871,124.000 173.740 C 127.728 172.223,134.389 170.619,141.083 169.627 L 143.583 169.256 197.417 169.204 C 251.411 169.152,255.956 169.191,259.667 169.737 C 266.632 170.762,273.332 172.486,277.623 174.358 C 278.012 174.528,278.413 174.667,278.514 174.667 C 278.616 174.667,278.898 174.775,279.141 174.907 C 279.384 175.039,280.408 175.505,281.417 175.942 C 283.151 176.694,284.984 177.612,286.667 178.569 C 287.079 178.804,287.529 179.048,287.667 179.112 C 289.111 179.784,296.138 184.524,297.367 185.656 C 297.523 185.799,297.748 185.995,297.867 186.091 C 297.986 186.187,298.682 186.750,299.413 187.341 C 300.866 188.517,305.923 193.488,307.289 195.083 C 307.760 195.633,308.342 196.308,308.582 196.583 C 309.073 197.147,312.253 201.323,312.756 202.067 C 313.126 202.613,313.279 202.856,314.937 205.514 C 317.349 209.383,319.321 213.372,321.273 218.333 C 321.688 219.387,322.168 220.550,322.340 220.917 C 322.513 221.283,322.890 222.183,323.179 222.917 C 324.573 226.452,324.844 227.123,326.003 229.917 C 326.573 231.292,327.181 232.773,327.353 233.208 C 328.134 235.180,328.333 235.675,328.910 237.083 C 329.248 237.908,329.625 238.808,329.747 239.083 C 329.951 239.543,330.571 241.071,331.353 243.042 C 332.074 244.860,332.349 245.537,333.331 247.917 C 334.399 250.505,334.780 251.443,335.313 252.792 C 335.485 253.227,335.941 254.333,336.327 255.250 C 336.712 256.167,337.146 257.250,337.291 257.657 C 337.435 258.065,337.653 258.590,337.776 258.824 C 337.898 259.058,337.998 259.304,337.999 259.370 C 338.000 259.436,338.177 259.886,338.393 260.370 C 338.608 260.854,338.927 261.613,339.101 262.057 L 339.417 262.865 341.250 262.755 C 342.258 262.695,343.708 262.501,344.471 262.323 C 345.235 262.145,346.004 262.000,346.180 262.000 C 346.581 262.000,346.593 261.390,346.255 258.083 C 343.068 226.853,330.696 193.077,309.290 157.167 C 306.377 152.280,306.615 152.588,303.865 150.135 C 297.497 144.454,289.838 139.560,282.583 136.538 L 281.417 136.052 281.377 138.206 C 281.087 153.920,263.413 163.629,249.743 155.584 C 242.907 151.560,239.446 145.285,239.402 136.833 C 239.391 134.771,239.372 132.352,239.358 131.458 L 239.333 129.833 224.167 129.833 L 209.000 129.833 208.967 130.708 C 208.948 131.190,208.957 132.375,208.985 133.344 C 209.084 136.685,207.997 139.174,205.598 141.097 C 199.434 146.037,190.245 140.930,191.189 133.088 C 191.264 132.465,191.292 131.902,191.251 131.835 C 191.210 131.769,191.163 131.291,191.146 130.774 L 191.115 129.833 181.564 129.833 L 172.013 129.833 171.963 128.375 C 171.936 127.573,171.943 129.429,171.979 132.500 M281.379 130.667 C 281.379 131.079,281.411 131.248,281.451 131.042 C 281.491 130.835,281.491 130.498,281.451 130.292 C 281.411 130.085,281.379 130.254,281.379 130.667 M148.377 134.014 C 149.254 134.445,154.986 140.549,155.282 141.367 C 155.423 141.756,155.484 143.821,155.491 148.418 C 155.505 158.115,156.077 157.498,147.082 157.499 C 140.886 157.500,140.398 157.449,139.623 156.712 C 138.648 155.785,138.667 155.948,138.667 148.448 L 138.667 141.547 139.105 140.898 C 139.346 140.542,140.048 139.725,140.666 139.083 C 141.283 138.442,142.530 137.102,143.436 136.107 C 145.667 133.657,146.732 133.206,148.377 134.014 M7.709 140.750 C 7.711 141.117,7.745 141.247,7.785 141.040 C 7.824 140.832,7.823 140.532,7.781 140.373 C 7.739 140.214,7.707 140.383,7.709 140.750 M392.375 141.083 C 392.377 141.450,392.411 141.580,392.451 141.373 C 392.491 141.166,392.490 140.866,392.448 140.706 C 392.406 140.547,392.374 140.717,392.375 141.083 M7.545 142.500 C 7.545 142.912,7.578 143.081,7.618 142.875 C 7.657 142.669,7.657 142.331,7.618 142.125 C 7.578 141.919,7.545 142.087,7.545 142.500 M7.383 144.667 C 7.383 145.171,7.415 145.377,7.453 145.125 C 7.491 144.873,7.491 144.460,7.453 144.208 C 7.415 143.956,7.383 144.162,7.383 144.667 M392.545 145.167 C 392.545 145.579,392.578 145.748,392.618 145.542 C 392.657 145.335,392.657 144.998,392.618 144.792 C 392.578 144.585,392.545 144.754,392.545 145.167 M7.383 147.000 C 7.383 147.504,7.415 147.710,7.453 147.458 C 7.491 147.206,7.491 146.794,7.453 146.542 C 7.415 146.290,7.383 146.496,7.383 147.000 M392.720 147.667 C 392.720 148.262,392.750 148.506,392.787 148.208 C 392.824 147.910,392.824 147.423,392.787 147.125 C 392.750 146.827,392.720 147.071,392.720 147.667 M7.224 150.250 C 7.224 150.983,7.254 151.263,7.289 150.871 C 7.324 150.479,7.324 149.879,7.288 149.537 C 7.252 149.196,7.223 149.517,7.224 150.250 M392.893 151.167 C 392.893 152.037,392.922 152.394,392.956 151.958 C 392.990 151.523,392.990 150.810,392.956 150.375 C 392.922 149.940,392.893 150.296,392.893 151.167 M7.074 158.333 C 7.074 161.221,7.097 162.402,7.125 160.958 C 7.152 159.515,7.152 157.152,7.125 155.708 C 7.097 154.265,7.074 155.446,7.074 158.333 M393.071 158.333 C 393.071 160.304,393.095 161.110,393.124 160.125 C 393.154 159.140,393.154 157.527,393.124 156.542 C 393.095 155.556,393.071 156.362,393.071 158.333 M392.892 165.417 C 392.892 166.242,392.920 166.600,392.955 166.213 C 392.990 165.827,392.990 165.152,392.956 164.713 C 392.922 164.275,392.893 164.592,392.892 165.417 M7.224 166.417 C 7.224 167.150,7.254 167.429,7.289 167.037 C 7.324 166.645,7.324 166.045,7.288 165.704 C 7.252 165.363,7.223 165.683,7.224 166.417 M392.718 169.083 C 392.719 169.633,392.750 169.838,392.787 169.539 C 392.825 169.239,392.824 168.789,392.786 168.539 C 392.748 168.288,392.717 168.533,392.718 169.083 M7.381 169.750 C 7.382 170.208,7.415 170.376,7.453 170.123 C 7.491 169.869,7.490 169.494,7.451 169.289 C 7.411 169.084,7.380 169.292,7.381 169.750 M392.545 171.667 C 392.545 172.079,392.578 172.248,392.618 172.042 C 392.657 171.835,392.657 171.498,392.618 171.292 C 392.578 171.085,392.545 171.254,392.545 171.667 M7.379 172.167 C 7.379 172.579,7.411 172.748,7.451 172.542 C 7.491 172.335,7.491 171.998,7.451 171.792 C 7.411 171.585,7.379 171.754,7.379 172.167 M392.542 173.917 C 392.544 174.283,392.578 174.414,392.618 174.206 C 392.658 173.999,392.656 173.699,392.615 173.540 C 392.573 173.380,392.540 173.550,392.542 173.917 M7.545 174.333 C 7.545 174.746,7.578 174.915,7.618 174.708 C 7.657 174.502,7.657 174.165,7.618 173.958 C 7.578 173.752,7.545 173.921,7.545 174.333 M392.379 175.833 C 392.379 176.246,392.411 176.415,392.451 176.208 C 392.491 176.002,392.491 175.665,392.451 175.458 C 392.411 175.252,392.379 175.421,392.379 175.833 M7.709 176.250 C 7.711 176.617,7.745 176.747,7.785 176.540 C 7.824 176.332,7.823 176.032,7.781 175.873 C 7.739 175.714,7.707 175.883,7.709 176.250 M392.209 177.583 C 392.211 177.950,392.245 178.080,392.285 177.873 C 392.324 177.666,392.323 177.366,392.281 177.206 C 392.239 177.047,392.207 177.217,392.209 177.583 M7.875 177.917 C 7.877 178.283,7.911 178.414,7.951 178.206 C 7.991 177.999,7.990 177.699,7.948 177.540 C 7.906 177.380,7.874 177.550,7.875 177.917 M392.045 179.167 C 392.045 179.579,392.078 179.748,392.118 179.542 C 392.157 179.335,392.157 178.998,392.118 178.792 C 392.078 178.585,392.045 178.754,392.045 179.167 M8.205 182.333 C 8.205 182.654,8.240 182.785,8.282 182.625 C 8.323 182.465,8.323 182.202,8.282 182.042 C 8.240 181.881,8.205 182.012,8.205 182.333 M8.372 183.667 C 8.372 183.987,8.406 184.119,8.448 183.958 C 8.490 183.798,8.490 183.535,8.448 183.375 C 8.406 183.215,8.372 183.346,8.372 183.667 M391.539 184.667 C 391.539 184.987,391.573 185.119,391.615 184.958 C 391.657 184.798,391.657 184.535,391.615 184.375 C 391.573 184.215,391.539 184.346,391.539 184.667 M387.595 207.595 C 387.534 207.839,387.516 208.071,387.555 208.111 C 387.594 208.150,387.677 207.982,387.738 207.738 C 387.799 207.494,387.817 207.262,387.778 207.223 C 387.739 207.183,387.657 207.351,387.595 207.595 M12.357 207.500 C 12.357 207.637,12.421 207.900,12.500 208.083 C 12.590 208.293,12.643 208.324,12.643 208.167 C 12.643 208.029,12.579 207.767,12.500 207.583 C 12.410 207.373,12.357 207.342,12.357 207.500 M386.786 210.702 C 386.634 211.177,386.537 211.593,386.571 211.627 C 386.605 211.661,386.760 211.304,386.917 210.833 C 387.073 210.363,387.169 209.947,387.131 209.909 C 387.093 209.871,386.937 210.228,386.786 210.702 M13.941 213.500 C 14.073 214.219,14.168 214.354,14.164 213.819 C 14.163 213.598,14.088 213.304,13.998 213.167 C 13.882 212.991,13.866 213.090,13.941 213.500 M14.262 214.667 C 14.324 214.896,14.443 215.196,14.528 215.333 C 14.635 215.507,14.649 215.456,14.571 215.167 C 14.510 214.938,14.390 214.637,14.305 214.500 C 14.198 214.326,14.185 214.377,14.262 214.667 M385.353 215.683 C 385.250 215.976,385.172 216.336,385.178 216.483 C 385.184 216.630,385.293 216.415,385.421 216.007 C 385.687 215.151,385.631 214.884,385.353 215.683 M14.929 216.833 C 14.990 217.063,15.110 217.362,15.195 217.500 C 15.302 217.674,15.315 217.623,15.238 217.333 C 15.176 217.104,15.057 216.804,14.972 216.667 C 14.865 216.493,14.851 216.544,14.929 216.833 M384.604 217.923 C 384.547 218.072,384.506 218.319,384.514 218.472 C 384.522 218.625,384.595 218.529,384.675 218.258 C 384.833 217.732,384.777 217.472,384.604 217.923 M383.937 219.923 C 383.880 220.072,383.840 220.319,383.848 220.472 C 383.856 220.625,383.928 220.529,384.009 220.258 C 384.166 219.732,384.110 219.472,383.937 219.923 M16.178 220.583 C 16.178 220.675,16.286 220.938,16.417 221.167 C 16.548 221.396,16.655 221.508,16.655 221.417 C 16.655 221.325,16.548 221.063,16.417 220.833 C 16.286 220.604,16.178 220.492,16.178 220.583 M383.452 221.457 C 383.306 221.801,383.144 222.271,383.092 222.500 L 382.998 222.917 383.183 222.500 C 383.703 221.324,383.842 220.953,383.783 220.894 C 383.748 220.859,383.599 221.112,383.452 221.457 M16.924 222.583 C 17.276 223.594,17.639 224.475,17.820 224.760 C 18.058 225.135,18.039 225.067,17.506 223.656 C 17.202 222.853,16.687 221.902,16.924 222.583 M382.694 223.424 C 382.587 223.658,382.503 223.939,382.507 224.050 C 382.510 224.160,382.624 223.995,382.759 223.683 C 383.044 223.027,382.984 222.788,382.694 223.424 M382.113 224.924 C 381.959 225.247,381.835 225.603,381.837 225.714 C 381.839 225.825,381.990 225.587,382.173 225.184 C 382.570 224.310,382.516 224.079,382.113 224.924 M18.002 225.275 C 18.001 225.381,18.187 225.868,18.415 226.358 C 18.643 226.849,18.831 227.164,18.832 227.058 C 18.833 226.953,18.647 226.465,18.418 225.975 C 18.190 225.485,18.003 225.170,18.002 225.275 M381.042 227.542 C 380.862 228.031,380.867 228.052,381.088 227.760 C 381.300 227.480,381.425 227.000,381.287 227.000 C 381.261 227.000,381.151 227.244,381.042 227.542 M19.005 227.689 C 19.002 227.748,19.112 228.010,19.249 228.273 C 19.386 228.535,19.498 228.633,19.499 228.490 C 19.500 228.246,19.017 227.462,19.005 227.689 M380.375 229.042 C 380.196 229.531,380.200 229.552,380.422 229.260 C 380.634 228.980,380.759 228.500,380.620 228.500 C 380.594 228.500,380.484 228.744,380.375 229.042 M19.921 229.750 C 20.162 230.300,20.433 230.825,20.522 230.917 C 20.611 231.008,20.487 230.633,20.246 230.083 C 20.004 229.533,19.734 229.008,19.644 228.917 C 19.555 228.825,19.680 229.200,19.921 229.750 M379.825 230.105 C 379.733 230.346,379.395 231.068,379.073 231.710 C 378.751 232.352,378.514 232.903,378.546 232.935 C 378.608 232.997,379.528 231.207,379.935 230.232 C 380.065 229.921,380.131 229.667,380.081 229.667 C 380.032 229.667,379.917 229.864,379.825 230.105 M21.116 232.248 C 21.268 232.568,21.423 232.800,21.459 232.763 C 21.535 232.687,21.029 231.667,20.915 231.667 C 20.873 231.667,20.963 231.928,21.116 232.248 M22.183 234.272 C 22.557 234.993,22.976 235.696,23.112 235.833 C 23.249 235.971,23.102 235.633,22.785 235.083 C 22.468 234.533,22.159 233.921,22.098 233.723 C 22.037 233.525,21.878 233.273,21.745 233.162 C 21.611 233.052,21.809 233.551,22.183 234.272 M377.589 234.598 C 377.434 234.835,377.335 235.058,377.370 235.093 C 377.406 235.128,377.566 234.934,377.727 234.662 C 378.086 234.053,377.978 234.004,377.589 234.598 M376.728 236.125 C 376.480 236.560,376.199 237.029,376.105 237.167 C 375.954 237.389,375.963 237.389,376.191 237.167 C 376.484 236.880,377.390 235.333,377.264 235.333 C 377.218 235.333,376.977 235.690,376.728 236.125 M23.333 236.239 C 23.333 236.397,24.152 237.814,24.531 238.314 C 24.697 238.533,24.832 238.645,24.830 238.564 C 24.828 238.483,24.679 238.229,24.500 238.000 C 24.321 237.771,24.172 237.530,24.170 237.466 C 24.165 237.308,23.333 236.088,23.333 236.239 M375.285 238.508 C 374.945 239.054,374.701 239.500,374.744 239.500 C 374.856 239.500,376.031 237.642,375.962 237.573 C 375.931 237.542,375.626 237.963,375.285 238.508 M25.873 240.397 C 26.927 241.974,27.540 242.833,27.609 242.833 C 27.703 242.833,27.573 242.616,26.960 241.750 C 26.700 241.383,26.302 240.802,26.075 240.458 C 25.848 240.115,25.625 239.833,25.579 239.833 C 25.533 239.833,25.665 240.087,25.873 240.397 M373.498 241.207 C 373.111 241.789,372.937 242.103,373.105 241.917 C 373.840 241.100,374.036 240.833,373.902 240.833 C 373.817 240.833,373.635 241.001,373.498 241.207 M372.392 242.792 C 371.596 243.794,370.439 245.457,370.863 244.991 C 371.076 244.756,371.400 244.354,371.583 244.097 C 371.767 243.840,371.994 243.544,372.089 243.440 C 372.376 243.123,373.027 242.167,372.956 242.167 C 372.919 242.167,372.666 242.448,372.392 242.792 M28.910 244.644 C 29.439 245.298,29.902 245.833,29.940 245.833 C 30.064 245.833,28.296 243.585,28.121 243.519 C 28.027 243.484,28.382 243.990,28.910 244.644 M370.155 245.708 C 369.666 246.130,369.099 246.849,369.337 246.745 C 369.473 246.686,369.797 246.382,370.058 246.069 C 370.545 245.486,370.584 245.339,370.155 245.708 M30.418 246.507 C 31.667 247.941,32.007 248.306,33.426 249.733 C 34.979 251.294,36.703 252.860,37.583 253.510 C 37.858 253.712,37.596 253.440,37.000 252.905 C 35.083 251.182,32.317 248.445,31.454 247.417 C 30.993 246.867,30.458 246.307,30.266 246.174 C 30.037 246.015,30.090 246.130,30.418 246.507 M368.409 247.692 C 368.046 248.073,367.916 248.274,368.119 248.139 C 368.460 247.912,369.269 247.000,369.129 247.000 C 369.095 247.000,368.771 247.312,368.409 247.692 M366.413 249.875 L 365.083 251.250 366.458 249.921 C 367.735 248.686,367.909 248.500,367.788 248.500 C 367.763 248.500,367.144 249.119,366.413 249.875 M364.162 251.879 C 363.747 252.266,363.035 252.895,362.579 253.277 C 361.120 254.498,360.901 254.710,361.601 254.225 C 361.977 253.964,362.755 253.338,363.330 252.833 C 363.906 252.329,364.423 251.879,364.480 251.833 C 364.645 251.700,365.047 251.166,364.979 251.171 C 364.945 251.173,364.577 251.491,364.162 251.879 M38.386 254.124 C 38.745 254.531,40.776 255.979,40.609 255.709 C 40.546 255.606,39.952 255.131,39.289 254.652 C 38.626 254.173,38.219 253.935,38.386 254.124 M360.160 255.180 L 359.583 255.693 360.120 255.339 C 360.596 255.025,360.955 254.667,360.795 254.667 C 360.763 254.667,360.478 254.898,360.160 255.180 M358.167 256.500 C 357.479 256.958,356.975 257.333,357.047 257.333 C 357.200 257.333,359.500 255.835,359.500 255.735 C 359.500 255.617,359.445 255.648,358.167 256.500 M42.250 256.793 C 42.433 256.971,42.883 257.283,43.250 257.487 C 44.006 257.907,43.589 257.537,42.583 256.895 C 42.131 256.606,42.024 256.573,42.250 256.793 M355.944 257.823 C 354.850 258.465,354.540 258.828,355.583 258.246 C 356.330 257.829,357.031 257.320,356.827 257.342 C 356.785 257.346,356.387 257.563,355.944 257.823 M44.014 257.884 C 44.052 257.912,44.308 258.066,44.583 258.227 L 45.083 258.520 44.690 258.177 C 44.473 257.988,44.217 257.833,44.120 257.833 C 44.024 257.833,43.976 257.856,44.014 257.884 M354.042 258.853 C 353.474 259.216,353.290 259.461,353.792 259.185 C 354.174 258.975,354.773 258.511,354.667 258.508 C 354.621 258.507,354.340 258.662,354.042 258.853 M352.792 259.429 C 352.169 259.767,352.207 259.907,352.833 259.583 C 353.108 259.441,353.333 259.289,353.333 259.246 C 353.333 259.138,353.315 259.145,352.792 259.429 " stroke="none" fill="#d0bafa" fill-rule="evenodd"></path><path id="path1" d="M95.750 3.859 C 95.200 3.942,93.962 4.160,93.000 4.344 C 89.402 5.033,87.889 5.315,86.917 5.479 C 86.367 5.573,85.467 5.734,84.917 5.839 C 82.629 6.274,80.470 6.675,78.667 7.000 C 76.863 7.325,74.705 7.726,72.417 8.161 C 71.867 8.266,70.967 8.427,70.417 8.520 C 69.532 8.668,68.101 8.934,65.000 9.525 C 61.682 10.158,58.674 12.972,57.900 16.167 C 57.759 16.751,57.676 18.181,57.673 20.113 L 57.667 23.143 58.682 22.731 C 62.080 21.350,64.587 20.884,69.761 20.671 C 72.047 20.578,75.417 20.429,77.250 20.342 C 79.083 20.254,82.083 20.138,83.917 20.083 C 85.750 20.029,88.638 19.913,90.333 19.825 C 92.029 19.738,96.604 19.555,100.500 19.419 C 104.396 19.282,108.176 19.121,108.899 19.062 L 110.216 18.953 110.118 16.101 C 109.834 7.786,103.807 2.651,95.750 3.859 M299.633 3.906 C 298.197 4.167,295.807 5.177,295.196 5.782 C 295.075 5.902,294.922 6.000,294.855 6.000 C 294.623 6.000,292.898 7.756,292.235 8.667 C 290.548 10.985,290.000 12.861,290.000 16.317 L 290.000 18.961 291.208 19.066 C 291.873 19.124,295.679 19.282,299.667 19.416 C 303.654 19.551,307.404 19.702,308.000 19.751 C 308.596 19.800,312.308 19.949,316.250 20.082 C 320.192 20.216,323.979 20.365,324.667 20.415 C 325.354 20.465,327.829 20.580,330.167 20.671 C 335.532 20.879,337.893 21.310,341.458 22.728 L 342.500 23.142 342.500 20.290 C 342.500 16.173,341.982 14.435,340.164 12.445 C 338.637 10.774,335.842 9.331,334.138 9.333 C 333.892 9.333,333.030 9.191,332.221 9.017 C 331.412 8.844,329.850 8.541,328.750 8.345 C 327.650 8.149,326.000 7.847,325.083 7.674 C 324.167 7.501,322.517 7.197,321.417 6.999 C 318.631 6.497,313.707 5.578,311.083 5.069 C 310.258 4.910,309.171 4.725,308.667 4.660 C 308.162 4.594,307.450 4.460,307.083 4.361 C 304.769 3.737,301.625 3.545,299.633 3.906 M77.750 50.317 C 69.196 51.911,62.895 57.874,60.826 66.333 C 60.196 68.911,60.225 79.443,60.869 82.000 C 66.310 103.593,96.924 103.093,101.705 81.333 C 102.189 79.130,102.233 69.433,101.770 67.167 C 99.437 55.766,88.747 48.267,77.750 50.317 M195.854 59.356 C 195.797 60.108,194.388 62.470,193.429 63.422 C 188.670 68.149,180.511 66.407,178.211 60.172 L 177.875 59.261 177.755 59.972 C 176.931 64.845,181.144 69.781,186.417 70.122 C 191.924 70.478,196.974 65.063,196.013 59.833 C 195.937 59.421,195.866 59.206,195.854 59.356 M148.944 59.685 C 147.722 64.253,152.246 69.769,157.500 70.115 C 163.005 70.479,168.128 65.152,167.211 60.019 L 167.080 59.287 166.682 60.269 C 163.504 68.088,152.289 68.034,149.383 60.185 C 149.092 59.399,149.038 59.336,148.944 59.685 M206.605 59.587 C 205.894 61.439,207.181 65.335,209.167 67.343 C 214.977 73.219,224.876 69.184,224.822 60.961 C 224.813 59.564,224.777 59.326,224.626 59.667 C 223.745 61.657,223.319 62.339,222.333 63.336 C 217.552 68.174,209.656 66.564,207.080 60.225 C 206.819 59.583,206.679 59.395,206.605 59.587 M235.448 59.562 C 235.223 60.148,235.339 62.110,235.669 63.302 C 238.025 71.804,249.695 72.511,253.082 64.357 C 253.578 63.163,253.957 58.643,253.475 59.667 C 252.410 61.929,252.174 62.304,251.175 63.322 C 246.312 68.275,237.416 66.193,235.678 59.694 C 235.580 59.326,235.546 59.306,235.448 59.562 M310.683 66.476 C 310.652 69.135,311.507 71.219,313.398 73.088 C 319.301 78.925,329.068 74.757,328.989 66.436 C 328.979 65.447,328.948 65.319,328.802 65.667 C 327.934 67.727,327.374 68.638,326.333 69.679 C 321.436 74.575,313.019 72.451,310.922 65.788 L 310.700 65.083 310.683 66.476 M291.989 84.500 C 291.863 89.470,294.561 93.193,299.059 94.253 C 304.885 95.627,310.654 90.877,310.298 84.999 C 310.257 84.327,310.206 84.172,310.106 84.417 C 306.554 93.084,295.282 93.351,292.379 84.837 L 292.009 83.750 291.989 84.500 M329.342 85.167 C 329.299 92.236,336.614 96.673,342.882 93.380 C 345.914 91.786,347.681 88.755,347.659 85.186 L 347.650 83.917 347.253 84.949 C 344.095 93.152,332.806 93.049,329.737 84.789 L 329.351 83.750 329.342 85.167 M310.683 103.941 C 310.566 114.800,326.861 116.585,328.818 105.928 C 329.068 104.568,329.051 102.582,328.795 103.167 C 328.038 104.893,327.508 105.785,326.732 106.642 C 321.827 112.063,313.131 110.112,310.914 103.094 C 310.704 102.431,310.699 102.450,310.683 103.941 M257.417 109.943 C 246.683 111.646,238.981 121.025,239.577 131.667 C 239.715 134.122,239.716 133.724,239.569 136.372 C 238.731 151.512,253.818 162.345,268.082 156.845 C 276.270 153.688,281.857 145.018,281.245 136.417 C 281.174 135.408,281.123 134.321,281.132 134.000 C 281.251 129.851,281.209 128.303,280.937 126.917 C 279.336 118.734,273.620 112.645,265.417 110.384 C 263.936 109.976,258.944 109.701,257.417 109.943 M155.202 116.201 C 155.183 116.358,153.741 118.019,151.999 119.892 C 147.104 125.154,147.080 125.155,142.482 120.284 C 140.820 118.524,139.319 116.858,139.147 116.583 L 138.835 116.083 138.834 117.797 C 138.833 120.098,138.831 120.095,142.242 123.750 C 145.759 127.518,145.816 127.561,147.227 127.471 C 148.530 127.388,148.461 127.444,152.000 123.618 C 155.399 119.944,155.360 120.014,155.291 117.705 C 155.262 116.721,155.222 116.045,155.202 116.201 M138.040 133.832 C 134.185 137.418,134.854 137.165,129.249 137.166 C 123.953 137.167,123.598 137.082,122.634 135.583 L 122.312 135.083 122.365 137.000 C 122.468 140.717,122.678 140.834,129.270 140.833 C 135.192 140.832,134.169 141.221,138.250 137.418 C 142.026 133.898,142.505 133.071,141.719 131.422 C 141.353 130.655,141.694 130.432,138.040 133.832 M152.408 131.411 C 151.667 133.186,152.051 133.840,155.994 137.516 C 159.912 141.168,159.000 140.833,165.021 140.833 L 170.019 140.833 170.801 140.095 L 171.583 139.356 171.633 137.387 L 171.682 135.417 171.229 135.979 C 170.334 137.091,169.965 137.159,164.833 137.159 C 159.219 137.158,159.916 137.428,155.930 133.708 C 152.455 130.464,152.729 130.643,152.408 131.411 M191.288 133.225 C 190.264 143.148,204.320 146.574,208.189 137.346 C 208.764 135.976,209.117 132.667,208.689 132.667 C 208.585 132.667,208.500 132.760,208.500 132.875 C 208.500 133.394,207.470 135.174,206.651 136.071 C 202.113 141.043,194.015 139.553,191.762 133.332 L 191.385 132.289 191.288 133.225 M155.066 151.957 C 154.966 152.225,154.597 152.664,154.246 152.931 L 153.610 153.417 147.347 153.465 C 140.038 153.522,139.607 153.442,138.993 151.926 C 138.906 151.712,138.852 152.270,138.847 153.417 C 138.830 157.244,139.006 157.327,147.069 157.331 L 153.221 157.333 153.928 156.919 C 155.053 156.259,155.356 155.449,155.297 153.253 C 155.257 151.737,155.222 151.542,155.066 151.957 " stroke="none" fill="#000000" fill-rule="evenodd"></path><path id="path2" d="M122.833 18.507 C 121.779 18.571,119.660 18.633,118.125 18.645 C 116.406 18.658,115.333 18.730,115.333 18.832 C 115.333 18.923,115.704 20.854,116.157 23.124 C 116.610 25.393,118.188 33.362,119.664 40.833 C 121.141 48.304,122.641 55.879,123.000 57.667 C 123.358 59.454,124.858 67.029,126.331 74.500 C 127.805 81.971,129.112 88.546,129.236 89.111 L 129.461 90.139 127.534 92.445 C 118.628 103.102,107.838 117.654,98.885 131.083 C 70.441 173.750,53.508 213.225,49.519 246.167 C 48.911 251.181,48.389 259.665,48.658 260.146 C 48.790 260.382,50.194 260.931,51.917 261.421 C 52.375 261.552,52.912 261.705,53.111 261.762 C 53.442 261.856,53.480 261.791,53.564 260.974 C 54.893 248.134,56.315 240.131,59.201 229.250 C 69.890 188.951,95.416 143.333,130.475 101.878 L 133.750 98.006 200.029 98.003 L 266.308 98.000 268.203 100.208 C 313.056 152.464,342.500 212.417,346.362 259.350 C 346.585 262.055,346.550 261.993,347.622 261.607 C 347.967 261.483,348.904 261.175,349.703 260.923 C 351.669 260.302,351.572 260.524,351.443 256.951 C 350.191 222.319,333.176 179.326,302.253 132.667 C 292.890 118.538,282.511 104.442,273.262 93.292 L 270.670 90.167 271.993 83.459 C 274.673 69.880,276.364 61.336,277.000 58.167 C 277.358 56.379,278.860 48.804,280.336 41.333 C 281.813 33.862,283.417 25.762,283.901 23.333 C 284.514 20.259,284.726 18.879,284.599 18.794 C 284.499 18.727,283.217 18.669,281.750 18.666 C 280.283 18.663,277.774 18.588,276.173 18.499 C 274.572 18.410,273.207 18.393,273.140 18.460 C 273.044 18.556,269.860 34.998,266.338 53.583 C 266.164 54.500,265.870 56.038,265.685 57.000 C 265.500 57.962,265.198 59.538,265.015 60.500 C 264.831 61.462,263.515 68.353,262.090 75.811 C 260.666 83.270,259.500 89.439,259.500 89.520 C 259.500 89.604,234.313 89.667,200.087 89.667 L 140.673 89.667 140.585 89.292 C 140.537 89.085,139.782 85.167,138.908 80.583 C 138.034 76.000,137.176 71.500,137.001 70.583 C 136.825 69.667,136.532 68.129,136.348 67.167 C 135.369 62.041,129.937 33.662,129.649 32.167 C 129.463 31.204,129.169 29.667,128.995 28.750 C 128.329 25.235,127.329 20.046,127.156 19.208 L 126.976 18.333 125.863 18.362 C 125.251 18.378,123.888 18.443,122.833 18.507 M100.875 19.453 C 101.127 19.491,101.540 19.491,101.792 19.453 C 102.044 19.415,101.837 19.383,101.333 19.383 C 100.829 19.383,100.623 19.415,100.875 19.453 M298.377 19.453 C 298.631 19.491,299.006 19.490,299.211 19.451 C 299.416 19.411,299.208 19.380,298.750 19.381 C 298.292 19.382,298.124 19.415,298.377 19.453 M95.960 19.618 C 96.168 19.658,96.468 19.656,96.627 19.615 C 96.786 19.573,96.617 19.540,96.250 19.542 C 95.883 19.544,95.753 19.578,95.960 19.618 M303.708 19.615 C 303.869 19.657,304.131 19.657,304.292 19.615 C 304.452 19.573,304.321 19.539,304.000 19.539 C 303.679 19.539,303.548 19.573,303.708 19.615 M84.292 20.118 C 84.498 20.157,84.835 20.157,85.042 20.118 C 85.248 20.078,85.079 20.045,84.667 20.045 C 84.254 20.045,84.085 20.078,84.292 20.118 M315.044 20.120 C 315.297 20.158,315.672 20.157,315.877 20.117 C 316.082 20.078,315.875 20.046,315.417 20.048 C 314.958 20.049,314.791 20.081,315.044 20.120 M79.208 20.282 C 79.369 20.323,79.631 20.323,79.792 20.282 C 79.952 20.240,79.821 20.205,79.500 20.205 C 79.179 20.205,79.048 20.240,79.208 20.282 M320.375 20.282 C 320.535 20.323,320.798 20.323,320.958 20.282 C 321.119 20.240,320.987 20.205,320.667 20.205 C 320.346 20.205,320.215 20.240,320.375 20.282 M67.792 20.784 C 67.998 20.824,68.335 20.824,68.542 20.784 C 68.748 20.745,68.579 20.712,68.167 20.712 C 67.754 20.712,67.585 20.745,67.792 20.784 M331.627 20.785 C 331.834 20.824,332.134 20.823,332.294 20.781 C 332.453 20.739,332.283 20.707,331.917 20.709 C 331.550 20.711,331.420 20.745,331.627 20.785 M224.872 61.000 C 224.872 61.321,224.906 61.452,224.948 61.292 C 224.990 61.131,224.990 60.869,224.948 60.708 C 224.906 60.548,224.872 60.679,224.872 61.000 M222.167 63.417 C 221.762 63.829,221.468 64.167,221.514 64.167 C 221.560 64.167,221.928 63.829,222.333 63.417 C 222.738 63.004,223.032 62.667,222.986 62.667 C 222.940 62.667,222.572 63.004,222.167 63.417 M222.158 67.458 L 221.583 68.083 222.208 67.509 C 222.552 67.193,222.833 66.912,222.833 66.884 C 222.833 66.757,222.692 66.877,222.158 67.458 M80.794 98.118 C 81.001 98.158,81.301 98.156,81.460 98.115 C 81.620 98.073,81.450 98.040,81.083 98.042 C 80.717 98.044,80.586 98.078,80.794 98.118 M259.625 109.789 C 260.015 109.824,260.652 109.824,261.042 109.789 C 261.431 109.754,261.112 109.725,260.333 109.725 C 259.554 109.725,259.235 109.754,259.625 109.789 M319.458 109.784 C 319.665 109.824,320.002 109.824,320.208 109.784 C 320.415 109.745,320.246 109.712,319.833 109.712 C 319.421 109.712,319.252 109.745,319.458 109.784 M275.000 115.750 C 275.311 116.071,275.603 116.333,275.649 116.333 C 275.695 116.333,275.478 116.071,275.167 115.750 C 274.856 115.429,274.564 115.167,274.518 115.167 C 274.472 115.167,274.689 115.429,275.000 115.750 M138.667 117.417 C 138.667 118.501,138.701 119.355,138.743 119.313 C 138.860 119.195,138.885 115.663,138.769 115.547 C 138.713 115.491,138.667 116.332,138.667 117.417 M141.000 118.750 C 141.311 119.071,141.603 119.333,141.649 119.333 C 141.695 119.333,141.478 119.071,141.167 118.750 C 140.856 118.429,140.564 118.167,140.518 118.167 C 140.472 118.167,140.689 118.429,141.000 118.750 M154.075 121.375 L 153.417 122.083 154.125 121.425 C 154.784 120.812,154.910 120.667,154.784 120.667 C 154.757 120.667,154.438 120.985,154.075 121.375 M143.000 120.885 C 143.000 120.914,143.244 121.158,143.542 121.427 L 144.083 121.917 143.594 121.375 C 143.138 120.870,143.000 120.757,143.000 120.885 M149.906 122.042 L 149.417 122.583 149.958 122.094 C 150.256 121.825,150.500 121.581,150.500 121.552 C 150.500 121.423,150.362 121.537,149.906 122.042 M141.583 123.167 C 141.941 123.533,142.272 123.833,142.318 123.833 C 142.363 123.833,142.108 123.533,141.750 123.167 C 141.392 122.800,141.062 122.500,141.016 122.500 C 140.970 122.500,141.225 122.800,141.583 123.167 M151.824 123.792 L 151.250 124.417 151.875 123.842 C 152.457 123.308,152.577 123.167,152.449 123.167 C 152.422 123.167,152.140 123.448,151.824 123.792 M146.794 123.785 C 147.001 123.824,147.301 123.823,147.460 123.781 C 147.620 123.739,147.450 123.707,147.083 123.709 C 146.717 123.711,146.586 123.745,146.794 123.785 M143.660 125.375 C 144.068 125.810,144.425 126.167,144.451 126.167 C 144.577 126.167,144.444 126.017,143.708 125.326 L 142.917 124.583 143.660 125.375 M149.740 126.042 L 149.250 126.583 149.792 126.094 C 150.090 125.825,150.333 125.581,150.333 125.552 C 150.333 125.423,150.196 125.537,149.740 126.042 M146.794 127.618 C 147.001 127.658,147.301 127.656,147.460 127.615 C 147.620 127.573,147.450 127.540,147.083 127.542 C 146.717 127.544,146.586 127.578,146.794 127.618 M140.073 131.875 L 139.583 132.417 140.125 131.927 C 140.423 131.658,140.667 131.414,140.667 131.385 C 140.667 131.257,140.529 131.370,140.073 131.875 M154.167 132.052 C 154.167 132.081,154.410 132.325,154.708 132.594 L 155.250 133.083 154.760 132.542 C 154.304 132.037,154.167 131.923,154.167 132.052 M137.740 134.042 L 137.250 134.583 137.792 134.094 C 138.090 133.825,138.333 133.581,138.333 133.552 C 138.333 133.423,138.196 133.537,137.740 134.042 M171.630 135.125 C 171.599 135.194,171.618 136.000,171.674 136.917 L 171.774 138.583 171.804 136.792 C 171.831 135.162,171.790 134.771,171.630 135.125 M193.667 136.417 C 193.978 136.737,194.270 137.000,194.315 137.000 C 194.361 137.000,194.144 136.737,193.833 136.417 C 193.522 136.096,193.230 135.833,193.185 135.833 C 193.139 135.833,193.356 136.096,193.667 136.417 M126.968 137.125 C 128.280 137.153,130.380 137.153,131.635 137.125 C 132.890 137.096,131.817 137.073,129.250 137.073 C 126.683 137.073,125.657 137.096,126.968 137.125 M162.458 137.125 C 163.765 137.153,165.902 137.153,167.208 137.125 C 168.515 137.096,167.446 137.073,164.833 137.073 C 162.221 137.073,161.152 137.096,162.458 137.125 M127.042 140.958 C 128.302 140.986,130.365 140.986,131.625 140.958 C 132.885 140.930,131.854 140.906,129.333 140.906 C 126.813 140.906,125.781 140.930,127.042 140.958 M162.542 140.958 C 163.802 140.986,165.865 140.986,167.125 140.958 C 168.385 140.930,167.354 140.906,164.833 140.906 C 162.313 140.906,161.281 140.930,162.542 140.958 M138.667 153.000 C 138.667 153.947,138.699 154.690,138.739 154.650 C 138.857 154.532,138.889 151.500,138.773 151.384 C 138.715 151.326,138.667 152.053,138.667 153.000 " stroke="none" fill="#7cebbc" fill-rule="evenodd"></path><path id="path3" d="M106.125 19.287 C 106.423 19.324,106.910 19.324,107.208 19.287 C 107.506 19.250,107.263 19.220,106.667 19.220 C 106.071 19.220,105.827 19.250,106.125 19.287 M292.961 19.287 C 293.261 19.325,293.711 19.324,293.961 19.286 C 294.212 19.248,293.967 19.217,293.417 19.218 C 292.867 19.219,292.662 19.250,292.961 19.287 M102.458 19.451 C 102.665 19.491,103.002 19.491,103.208 19.451 C 103.415 19.411,103.246 19.379,102.833 19.379 C 102.421 19.379,102.252 19.411,102.458 19.451 M296.877 19.453 C 297.131 19.491,297.506 19.490,297.711 19.451 C 297.916 19.411,297.708 19.380,297.250 19.381 C 296.792 19.382,296.624 19.415,296.877 19.453 M97.631 19.623 C 98.115 19.657,98.865 19.656,99.297 19.622 C 99.730 19.588,99.333 19.560,98.417 19.561 C 97.500 19.561,97.146 19.589,97.631 19.623 M300.881 19.623 C 301.412 19.657,302.237 19.656,302.714 19.623 C 303.192 19.589,302.758 19.562,301.750 19.562 C 300.742 19.563,300.351 19.590,300.881 19.623 M93.542 19.790 C 94.069 19.823,94.931 19.823,95.458 19.790 C 95.985 19.757,95.554 19.730,94.500 19.730 C 93.446 19.730,93.015 19.757,93.542 19.790 M304.632 19.790 C 305.208 19.823,306.108 19.823,306.632 19.790 C 307.155 19.757,306.683 19.730,305.583 19.730 C 304.483 19.731,304.055 19.758,304.632 19.790 M89.455 19.954 C 89.750 19.990,90.275 19.991,90.621 19.955 C 90.967 19.919,90.725 19.889,90.083 19.888 C 89.442 19.887,89.159 19.917,89.455 19.954 M309.458 19.954 C 309.756 19.991,310.244 19.991,310.542 19.954 C 310.840 19.917,310.596 19.887,310.000 19.887 C 309.404 19.887,309.160 19.917,309.458 19.954 M85.708 20.119 C 85.960 20.158,86.373 20.158,86.625 20.119 C 86.877 20.081,86.671 20.050,86.167 20.050 C 85.662 20.050,85.456 20.081,85.708 20.119 M313.544 20.120 C 313.797 20.158,314.172 20.157,314.377 20.117 C 314.582 20.078,314.375 20.046,313.917 20.048 C 313.458 20.049,313.291 20.081,313.544 20.120 M80.881 20.290 C 81.412 20.323,82.237 20.323,82.714 20.289 C 83.192 20.256,82.758 20.229,81.750 20.229 C 80.742 20.229,80.351 20.257,80.881 20.290 M317.548 20.290 C 318.078 20.323,318.903 20.323,319.381 20.289 C 319.859 20.256,319.425 20.229,318.417 20.229 C 317.408 20.229,317.017 20.257,317.548 20.290 M76.965 20.457 C 77.541 20.490,78.441 20.489,78.965 20.456 C 79.488 20.423,79.017 20.397,77.917 20.397 C 76.817 20.397,76.388 20.424,76.965 20.457 M321.208 20.456 C 321.735 20.490,322.598 20.490,323.125 20.456 C 323.652 20.423,323.221 20.396,322.167 20.396 C 321.112 20.396,320.681 20.423,321.208 20.456 M72.788 20.620 C 73.084 20.657,73.609 20.658,73.955 20.622 C 74.300 20.586,74.058 20.555,73.417 20.555 C 72.775 20.554,72.492 20.583,72.788 20.620 M325.875 20.621 C 326.219 20.657,326.781 20.657,327.125 20.621 C 327.469 20.585,327.188 20.556,326.500 20.556 C 325.813 20.556,325.531 20.585,325.875 20.621 M69.211 20.786 C 69.464 20.825,69.839 20.824,70.044 20.784 C 70.249 20.744,70.042 20.713,69.583 20.714 C 69.125 20.716,68.957 20.748,69.211 20.786 M330.042 20.786 C 330.294 20.824,330.706 20.824,330.958 20.786 C 331.210 20.748,331.004 20.717,330.500 20.717 C 329.996 20.717,329.790 20.748,330.042 20.786 M66.042 20.953 C 66.294 20.991,66.706 20.991,66.958 20.953 C 67.210 20.915,67.004 20.883,66.500 20.883 C 65.996 20.883,65.790 20.915,66.042 20.953 M332.847 20.894 C 332.885 20.928,333.517 20.996,334.250 21.047 C 335.208 21.113,335.395 21.099,334.917 20.996 C 334.254 20.853,332.715 20.778,332.847 20.894 M64.708 21.115 C 64.869 21.157,65.131 21.157,65.292 21.115 C 65.452 21.073,65.321 21.039,65.000 21.039 C 64.679 21.039,64.548 21.073,64.708 21.115 M61.833 21.667 C 61.498 21.774,61.482 21.801,61.750 21.805 C 61.933 21.808,62.233 21.745,62.417 21.667 C 62.841 21.484,62.403 21.484,61.833 21.667 M337.667 21.667 C 338.237 21.849,338.675 21.849,338.250 21.667 C 338.067 21.588,337.767 21.526,337.583 21.528 C 337.315 21.532,337.332 21.559,337.667 21.667 M340.167 22.417 C 340.928 22.710,341.227 22.705,340.583 22.411 C 340.308 22.285,339.971 22.184,339.833 22.187 C 339.696 22.190,339.846 22.293,340.167 22.417 M155.667 47.855 C 152.081 48.817,149.294 51.929,148.821 55.500 C 148.656 56.742,148.815 59.924,149.015 59.410 C 149.128 59.123,149.145 59.119,149.155 59.380 C 149.180 60.024,150.357 62.136,151.218 63.083 C 155.356 67.633,162.771 66.905,165.955 61.636 C 170.285 54.469,163.733 45.692,155.667 47.855 M184.561 47.830 C 181.360 48.669,178.651 51.372,177.851 54.525 C 177.519 55.832,177.388 61.700,177.670 62.641 C 177.746 62.894,177.764 62.505,177.712 61.732 C 177.662 60.988,177.676 60.088,177.743 59.732 L 177.866 59.083 178.260 60.129 C 181.362 68.356,192.932 67.960,195.740 59.531 C 197.994 52.763,191.535 46.002,184.561 47.830 M214.250 47.612 C 209.117 48.740,206.029 52.796,206.412 57.908 C 206.479 58.809,206.589 59.459,206.656 59.351 C 206.728 59.234,206.862 59.444,206.988 59.869 C 209.383 67.993,221.666 68.049,224.443 59.948 L 224.740 59.083 224.857 59.917 C 224.921 60.375,224.945 61.200,224.910 61.750 L 224.846 62.750 225.012 61.833 C 225.117 61.255,225.122 60.548,225.025 59.917 C 224.939 59.351,224.934 58.483,225.012 57.917 C 225.824 52.086,219.863 46.379,214.250 47.612 M242.761 47.687 C 237.843 48.840,234.901 52.842,235.256 57.895 C 235.320 58.800,235.425 59.455,235.489 59.352 C 235.553 59.248,235.733 59.570,235.891 60.070 C 237.174 64.141,242.177 66.925,246.417 65.927 C 249.816 65.127,251.939 63.205,253.424 59.583 C 253.537 59.308,253.579 59.366,253.663 59.917 C 253.719 60.283,253.781 59.407,253.800 57.969 C 253.892 51.051,248.768 46.279,242.761 47.687 M80.547 49.956 C 80.985 49.990,81.660 49.990,82.047 49.955 C 82.434 49.920,82.075 49.892,81.250 49.892 C 80.425 49.893,80.109 49.922,80.547 49.956 M78.375 50.115 C 78.535 50.157,78.798 50.157,78.958 50.115 C 79.119 50.073,78.987 50.039,78.667 50.039 C 78.346 50.039,78.215 50.073,78.375 50.115 M76.667 50.342 C 76.386 50.437,76.521 50.452,77.083 50.387 C 77.542 50.334,77.948 50.263,77.986 50.229 C 78.117 50.112,77.083 50.200,76.667 50.342 M84.917 50.333 C 85.192 50.403,85.604 50.462,85.833 50.464 L 86.250 50.467 85.833 50.333 C 85.604 50.260,85.192 50.201,84.917 50.203 L 84.417 50.206 84.917 50.333 M87.333 50.917 C 87.654 51.040,88.029 51.141,88.167 51.141 C 88.304 51.141,88.154 51.040,87.833 50.917 C 87.513 50.793,87.138 50.692,87.000 50.692 C 86.862 50.692,87.013 50.793,87.333 50.917 M89.167 51.531 C 89.396 51.640,90.015 51.942,90.542 52.201 C 91.069 52.460,91.500 52.634,91.500 52.588 C 91.500 52.469,89.664 51.564,89.167 51.438 L 88.750 51.332 89.167 51.531 M71.292 52.345 C 70.948 52.526,70.667 52.712,70.667 52.757 C 70.667 52.803,70.967 52.687,71.333 52.500 C 71.700 52.313,72.000 52.124,72.000 52.080 C 72.000 51.971,71.999 51.971,71.292 52.345 M91.667 52.714 C 91.667 52.752,92.055 53.025,92.530 53.320 C 93.005 53.616,93.310 53.756,93.207 53.631 C 93.010 53.395,91.667 52.595,91.667 52.714 M68.774 53.924 C 67.739 54.715,67.783 54.822,68.833 54.067 C 69.580 53.531,69.788 53.333,69.607 53.333 C 69.575 53.333,69.200 53.599,68.774 53.924 M319.083 53.773 C 318.900 53.810,318.300 53.923,317.750 54.025 C 312.720 54.959,309.324 60.719,310.941 65.575 C 313.785 74.113,324.978 74.703,328.416 66.496 C 328.665 65.902,328.908 65.379,328.956 65.333 C 329.004 65.287,329.008 66.112,328.965 67.167 C 328.919 68.286,328.940 68.841,329.017 68.500 C 329.353 67.004,329.175 61.709,328.742 60.338 C 327.461 56.285,322.694 53.044,319.083 53.773 M93.833 54.165 C 95.783 55.855,96.387 56.448,97.245 57.520 C 98.536 59.133,98.851 59.445,98.150 58.420 C 97.465 57.416,94.810 54.706,94.000 54.182 C 93.444 53.822,93.436 53.821,93.833 54.165 M66.143 56.292 C 64.772 57.707,63.917 58.767,63.418 59.667 C 63.179 60.099,63.442 59.787,64.260 58.667 C 64.695 58.071,65.691 56.927,66.473 56.125 C 67.254 55.323,67.854 54.667,67.805 54.667 C 67.757 54.667,67.009 55.398,66.143 56.292 M98.804 59.605 C 99.173 60.277,99.545 60.642,99.259 60.052 C 99.118 59.760,98.919 59.470,98.818 59.407 C 98.686 59.325,98.682 59.382,98.804 59.605 M206.390 60.917 C 206.391 61.650,206.420 61.929,206.456 61.537 C 206.491 61.145,206.490 60.545,206.454 60.204 C 206.419 59.863,206.390 60.183,206.390 60.917 M235.221 60.917 C 235.222 61.558,235.252 61.800,235.288 61.455 C 235.324 61.109,235.324 60.584,235.287 60.288 C 235.250 59.992,235.221 60.275,235.221 60.917 M62.917 60.500 C 62.774 60.775,62.696 61.000,62.741 61.000 C 62.787 61.000,62.941 60.775,63.083 60.500 C 63.226 60.225,63.304 60.000,63.259 60.000 C 63.213 60.000,63.059 60.225,62.917 60.500 M148.718 60.917 C 148.719 61.467,148.750 61.672,148.787 61.372 C 148.825 61.072,148.824 60.622,148.786 60.372 C 148.748 60.122,148.717 60.367,148.718 60.917 M62.432 61.309 C 62.247 61.607,61.986 62.409,62.125 62.250 C 62.309 62.039,62.683 61.167,62.590 61.167 C 62.551 61.167,62.480 61.231,62.432 61.309 M253.695 61.918 C 253.679 62.285,253.593 62.843,253.503 63.157 C 253.413 63.471,253.370 63.759,253.409 63.797 C 253.556 63.945,253.849 62.448,253.787 61.864 L 253.723 61.250 253.695 61.918 M100.366 62.504 C 100.558 62.964,100.743 63.313,100.778 63.278 C 100.856 63.199,100.210 61.667,100.098 61.667 C 100.054 61.667,100.175 62.043,100.366 62.504 M148.845 62.597 C 148.851 62.865,148.923 63.233,149.004 63.417 C 149.103 63.639,149.119 63.501,149.053 63.000 C 148.936 62.117,148.828 61.908,148.845 62.597 M61.694 62.924 C 61.587 63.158,61.503 63.439,61.507 63.550 C 61.510 63.660,61.624 63.495,61.759 63.183 C 62.044 62.527,61.984 62.288,61.694 62.924 M166.938 63.354 C 166.799 64.049,166.933 64.184,167.083 63.500 C 167.147 63.212,167.164 62.941,167.121 62.899 C 167.079 62.857,166.996 63.061,166.938 63.354 M206.679 63.285 C 206.660 63.602,207.305 65.235,207.592 65.593 C 207.800 65.855,207.796 65.807,207.570 65.342 C 207.416 65.026,207.156 64.388,206.991 63.925 C 206.826 63.462,206.686 63.174,206.679 63.285 M235.523 63.333 C 235.523 63.471,235.588 63.733,235.667 63.917 C 235.757 64.127,235.810 64.158,235.810 64.000 C 235.810 63.862,235.745 63.600,235.667 63.417 C 235.576 63.207,235.523 63.176,235.523 63.333 M195.680 63.686 C 195.653 64.230,194.493 66.278,193.660 67.250 L 192.803 68.250 193.744 67.254 C 194.708 66.235,195.943 64.043,195.782 63.639 C 195.718 63.480,195.689 63.493,195.680 63.686 M178.084 64.167 C 178.234 64.666,178.647 65.500,178.745 65.500 C 178.821 65.500,178.174 63.968,178.041 63.833 C 177.996 63.788,178.015 63.938,178.084 64.167 M224.105 64.762 C 223.444 66.365,222.301 67.600,220.063 69.131 C 219.891 69.249,220.088 69.175,220.500 68.965 C 221.958 68.226,224.717 64.890,224.471 64.165 C 224.441 64.077,224.276 64.346,224.105 64.762 M166.283 65.085 C 166.130 65.405,166.040 65.667,166.082 65.667 C 166.196 65.667,166.702 64.646,166.625 64.570 C 166.589 64.534,166.435 64.766,166.283 65.085 M252.662 65.298 C 252.435 65.727,251.888 66.529,251.446 67.081 L 250.642 68.083 251.396 67.285 C 252.112 66.526,253.276 64.720,253.138 64.582 C 253.102 64.547,252.888 64.869,252.662 65.298 M60.917 65.167 C 60.853 65.455,60.836 65.725,60.879 65.768 C 60.921 65.810,61.004 65.605,61.063 65.313 C 61.201 64.618,61.067 64.483,60.917 65.167 M236.000 64.776 C 236.000 65.665,239.540 69.333,240.398 69.333 C 240.482 69.333,240.109 69.043,239.568 68.688 C 238.327 67.874,237.353 66.860,236.594 65.593 C 236.267 65.049,236.000 64.681,236.000 64.776 M310.542 65.917 C 310.544 66.283,310.578 66.414,310.618 66.206 C 310.658 65.999,310.656 65.699,310.615 65.540 C 310.573 65.380,310.540 65.550,310.542 65.917 M101.536 65.750 C 101.538 65.933,101.597 66.308,101.667 66.583 C 101.781 67.032,101.794 67.041,101.797 66.667 C 101.799 66.438,101.740 66.063,101.667 65.833 C 101.562 65.507,101.534 65.489,101.536 65.750 M179.021 65.996 C 179.433 66.856,181.927 69.167,182.444 69.167 C 182.518 69.167,182.205 68.914,181.748 68.606 C 180.944 68.063,179.730 66.859,179.120 66.000 L 178.824 65.583 179.021 65.996 M165.032 66.962 C 164.154 68.075,164.153 68.077,164.914 67.268 C 165.574 66.566,166.117 65.825,165.964 65.837 C 165.938 65.839,165.519 66.345,165.032 66.962 M208.122 66.417 C 208.904 67.528,211.322 69.500,211.904 69.500 C 211.998 69.500,211.599 69.219,211.016 68.875 C 210.434 68.531,209.465 67.725,208.864 67.083 C 208.262 66.442,207.929 66.142,208.122 66.417 M151.417 67.466 C 152.192 68.289,153.595 69.333,153.922 69.333 C 154.001 69.333,153.694 69.101,153.241 68.818 C 152.788 68.534,152.004 67.916,151.500 67.443 L 150.583 66.583 151.417 67.466 M310.542 67.417 C 310.544 67.783,310.578 67.914,310.618 67.706 C 310.658 67.499,310.656 67.199,310.615 67.040 C 310.573 66.880,310.540 67.050,310.542 67.417 M60.275 68.375 C 60.144 69.464,60.163 72.609,60.308 73.833 C 60.368 74.337,60.417 73.119,60.417 71.125 C 60.417 67.089,60.420 67.162,60.275 68.375 M249.810 68.470 C 249.477 68.716,249.064 69.013,248.894 69.131 C 248.723 69.249,248.904 69.178,249.296 68.973 C 249.687 68.768,250.130 68.466,250.280 68.300 C 250.645 67.897,250.533 67.937,249.810 68.470 M163.024 68.670 C 162.035 69.319,161.931 69.469,162.801 68.990 C 163.196 68.773,163.599 68.498,163.697 68.381 C 163.941 68.086,163.858 68.121,163.024 68.670 M191.857 68.670 C 190.869 69.319,190.764 69.469,191.634 68.990 C 192.029 68.773,192.432 68.498,192.530 68.381 C 192.775 68.086,192.692 68.121,191.857 68.670 M310.857 69.167 C 310.857 69.304,310.921 69.567,311.000 69.750 C 311.090 69.960,311.143 69.991,311.143 69.833 C 311.143 69.696,311.079 69.433,311.000 69.250 C 310.910 69.040,310.857 69.009,310.857 69.167 M182.756 69.343 C 182.853 69.500,183.994 69.895,184.085 69.804 C 184.120 69.769,183.817 69.621,183.411 69.476 C 183.006 69.330,182.711 69.270,182.756 69.343 M154.254 69.484 C 154.343 69.571,154.642 69.696,154.917 69.762 C 155.562 69.915,155.417 69.773,154.670 69.520 C 154.352 69.412,154.164 69.396,154.254 69.484 M240.754 69.484 C 240.843 69.571,241.142 69.696,241.417 69.762 C 242.062 69.915,241.917 69.773,241.170 69.520 C 240.852 69.412,240.664 69.396,240.754 69.484 M328.500 69.702 C 328.500 69.752,328.386 70.064,328.248 70.396 C 328.109 70.728,328.038 71.000,328.090 71.000 C 328.235 71.000,328.698 69.809,328.593 69.704 C 328.542 69.653,328.500 69.652,328.500 69.702 M102.221 70.917 C 102.222 71.558,102.252 71.800,102.288 71.455 C 102.324 71.109,102.324 70.584,102.287 70.288 C 102.250 69.992,102.221 70.275,102.221 70.917 M157.455 70.287 C 157.750 70.324,158.275 70.324,158.621 70.288 C 158.967 70.252,158.725 70.222,158.083 70.221 C 157.442 70.221,157.159 70.250,157.455 70.287 M186.288 70.287 C 186.584 70.324,187.109 70.324,187.455 70.288 C 187.800 70.252,187.558 70.222,186.917 70.221 C 186.275 70.221,185.992 70.250,186.288 70.287 M215.121 70.287 C 215.417 70.324,215.942 70.324,216.288 70.288 C 216.634 70.252,216.392 70.222,215.750 70.221 C 215.108 70.221,214.825 70.250,215.121 70.287 M243.955 70.287 C 244.250 70.324,244.775 70.324,245.121 70.288 C 245.467 70.252,245.225 70.222,244.583 70.221 C 243.942 70.221,243.659 70.250,243.955 70.287 M312.191 72.042 C 312.717 72.792,314.174 74.189,314.807 74.551 C 315.606 75.008,315.441 74.820,314.337 74.017 C 313.790 73.618,313.031 72.888,312.651 72.396 C 311.895 71.416,311.583 71.176,312.191 72.042 M326.667 72.805 C 326.254 73.247,325.654 73.817,325.333 74.071 C 325.012 74.326,324.862 74.476,325.000 74.406 C 325.543 74.127,326.511 73.285,327.006 72.659 C 327.707 71.774,327.578 71.830,326.667 72.805 M298.583 72.811 C 291.742 74.777,289.596 83.295,294.674 88.333 C 299.384 93.007,307.503 91.257,309.752 85.083 C 310.272 83.653,310.379 83.785,310.293 85.750 C 310.241 86.910,310.264 87.400,310.355 87.083 C 310.675 85.961,310.431 80.003,310.018 78.869 C 308.265 74.056,303.337 71.445,298.583 72.811 M336.167 72.754 C 332.726 73.605,329.949 76.642,329.323 80.240 C 329.108 81.475,329.207 83.607,329.492 83.892 C 329.588 83.988,329.667 84.193,329.667 84.347 C 329.667 84.956,331.008 87.278,331.865 88.153 C 336.753 93.143,344.744 91.389,347.283 84.769 L 347.673 83.750 347.618 85.750 C 347.588 86.850,347.617 87.563,347.682 87.333 C 347.868 86.679,347.845 80.501,347.653 79.667 C 346.518 74.714,341.195 71.511,336.167 72.754 M60.232 77.083 C 60.233 78.367,60.259 78.870,60.291 78.201 C 60.322 77.532,60.322 76.482,60.290 75.868 C 60.258 75.253,60.232 75.800,60.232 77.083 M315.833 75.083 C 316.063 75.214,316.325 75.322,316.417 75.322 C 316.508 75.322,316.396 75.214,316.167 75.083 C 315.938 74.952,315.675 74.845,315.583 74.845 C 315.492 74.845,315.604 74.952,315.833 75.083 M323.500 75.083 C 323.271 75.214,323.158 75.322,323.250 75.322 C 323.342 75.322,323.604 75.214,323.833 75.083 C 324.063 74.952,324.175 74.845,324.083 74.845 C 323.992 74.845,323.729 74.952,323.500 75.083 M316.849 75.499 C 316.996 75.585,317.446 75.695,317.849 75.744 C 318.544 75.828,318.534 75.820,317.667 75.590 C 316.583 75.303,316.498 75.294,316.849 75.499 M321.917 75.601 L 321.083 75.829 321.817 75.742 C 322.221 75.694,322.671 75.585,322.817 75.499 C 323.165 75.296,322.937 75.322,321.917 75.601 M319.292 75.954 C 319.590 75.991,320.077 75.991,320.375 75.954 C 320.673 75.917,320.429 75.887,319.833 75.887 C 319.237 75.887,318.994 75.917,319.292 75.954 M102.223 77.167 C 102.223 77.854,102.252 78.135,102.288 77.792 C 102.324 77.448,102.324 76.885,102.288 76.542 C 102.252 76.198,102.223 76.479,102.223 77.167 M60.372 80.000 C 60.372 80.321,60.406 80.452,60.448 80.292 C 60.490 80.131,60.490 79.869,60.448 79.708 C 60.406 79.548,60.372 79.679,60.372 80.000 M60.862 82.417 C 60.859 82.600,60.921 82.900,61.000 83.083 C 61.183 83.508,61.183 83.070,61.000 82.500 C 60.893 82.165,60.866 82.149,60.862 82.417 M100.952 84.036 C 100.801 84.510,100.704 84.926,100.738 84.960 C 100.772 84.994,100.927 84.637,101.083 84.167 C 101.240 83.696,101.336 83.280,101.298 83.242 C 101.260 83.204,101.104 83.561,100.952 84.036 M61.429 84.333 C 61.490 84.563,61.610 84.862,61.695 85.000 C 61.802 85.174,61.815 85.123,61.738 84.833 C 61.676 84.604,61.557 84.304,61.472 84.167 C 61.365 83.993,61.351 84.044,61.429 84.333 M329.223 85.333 C 329.223 86.021,329.252 86.302,329.288 85.958 C 329.324 85.615,329.324 85.052,329.288 84.708 C 329.252 84.365,329.223 84.646,329.223 85.333 M99.868 86.589 C 99.576 87.182,99.372 87.667,99.416 87.667 C 99.528 87.667,100.535 85.646,100.461 85.572 C 100.427 85.538,100.160 85.996,99.868 86.589 M62.000 85.727 C 62.000 85.908,62.995 87.833,63.088 87.833 C 63.134 87.833,62.936 87.365,62.649 86.792 C 62.105 85.706,62.000 85.534,62.000 85.727 M329.511 87.772 C 329.474 88.965,331.935 92.354,333.466 93.218 C 334.268 93.670,334.113 93.491,333.004 92.683 C 331.541 91.618,330.302 89.875,329.734 88.083 C 329.603 87.673,329.518 87.553,329.511 87.772 M292.171 88.019 C 292.155 89.090,294.720 92.527,296.000 93.149 C 296.347 93.318,296.333 93.287,295.917 92.968 C 294.292 91.720,293.279 90.436,292.582 88.741 C 292.358 88.196,292.173 87.871,292.171 88.019 M63.502 88.542 C 63.680 88.840,64.019 89.308,64.255 89.583 C 64.490 89.858,64.373 89.615,63.994 89.042 C 63.266 87.943,62.953 87.624,63.502 88.542 M98.333 89.167 C 98.138 89.442,98.015 89.667,98.061 89.667 C 98.106 89.667,98.304 89.442,98.500 89.167 C 98.696 88.892,98.819 88.667,98.773 88.667 C 98.727 88.667,98.529 88.892,98.333 89.167 M346.783 89.419 C 346.630 89.738,346.540 90.000,346.582 90.000 C 346.696 90.000,347.202 88.980,347.125 88.903 C 347.089 88.867,346.935 89.099,346.783 89.419 M308.781 90.446 C 308.439 90.967,308.295 91.269,308.463 91.117 C 308.750 90.858,309.589 89.500,309.463 89.500 C 309.431 89.500,309.124 89.926,308.781 90.446 M65.467 91.125 C 65.925 91.652,66.509 92.271,66.766 92.500 C 67.022 92.729,66.678 92.298,66.001 91.542 C 65.324 90.785,64.739 90.167,64.702 90.167 C 64.664 90.167,65.009 90.598,65.467 91.125 M345.799 90.978 C 345.466 91.424,344.831 92.077,344.388 92.428 C 343.291 93.299,343.182 93.409,343.667 93.160 C 344.178 92.896,346.038 91.056,346.312 90.542 C 346.625 89.953,346.456 90.097,345.799 90.978 M96.000 91.917 C 95.317 92.604,94.796 93.167,94.842 93.167 C 94.888 93.167,95.484 92.604,96.167 91.917 C 96.850 91.229,97.371 90.667,97.325 90.667 C 97.279 90.667,96.683 91.229,96.000 91.917 M317.667 91.411 C 312.551 92.586,309.399 97.949,310.917 102.893 C 313.039 109.804,321.315 112.006,326.328 106.994 C 327.365 105.956,327.648 105.502,328.809 103.000 C 328.966 102.663,328.992 102.948,328.947 104.500 C 328.913 105.648,328.944 106.219,329.023 105.924 C 329.265 105.027,329.177 99.278,328.905 98.216 C 327.646 93.305,322.635 90.270,317.667 91.411 M307.243 92.217 C 306.781 92.602,306.219 93.051,305.993 93.216 C 305.599 93.503,305.605 93.503,306.135 93.216 C 306.650 92.937,308.351 91.514,308.167 91.516 C 308.121 91.517,307.705 91.832,307.243 92.217 M67.996 93.498 C 68.406 93.881,68.893 94.273,69.079 94.368 C 69.504 94.586,69.319 94.412,68.167 93.515 L 67.250 92.800 67.996 93.498 M93.667 93.940 C 92.759 94.652,92.647 94.767,93.083 94.534 C 93.446 94.341,94.635 93.346,94.500 93.349 C 94.454 93.350,94.079 93.616,93.667 93.940 M304.750 93.824 C 304.383 93.998,304.130 94.146,304.188 94.153 C 304.350 94.174,305.500 93.673,305.500 93.581 C 305.500 93.469,305.499 93.470,304.750 93.824 M334.167 93.596 C 334.167 93.709,335.032 94.023,335.115 93.941 C 335.153 93.903,334.955 93.792,334.675 93.695 C 334.395 93.597,334.167 93.553,334.167 93.596 M298.583 94.326 C 298.903 94.471,299.796 94.565,299.653 94.439 C 299.615 94.405,299.283 94.332,298.917 94.276 C 298.452 94.205,298.351 94.220,298.583 94.326 M303.083 94.333 C 302.630 94.449,302.622 94.461,303.000 94.469 C 303.229 94.473,303.567 94.412,303.750 94.333 C 304.161 94.157,303.777 94.157,303.083 94.333 M335.917 94.326 C 336.237 94.471,337.129 94.565,336.986 94.439 C 336.948 94.405,336.617 94.332,336.250 94.276 C 335.785 94.205,335.684 94.220,335.917 94.326 M340.417 94.333 C 339.963 94.449,339.955 94.461,340.333 94.469 C 340.563 94.473,340.900 94.412,341.083 94.333 C 341.494 94.157,341.111 94.157,340.417 94.333 M69.584 94.668 C 69.696 94.848,70.667 95.389,70.667 95.271 C 70.667 95.232,70.400 95.042,70.073 94.850 C 69.747 94.657,69.527 94.575,69.584 94.668 M300.542 94.621 C 300.885 94.657,301.448 94.657,301.792 94.621 C 302.135 94.585,301.854 94.556,301.167 94.556 C 300.479 94.556,300.198 94.585,300.542 94.621 M337.963 94.622 C 338.355 94.657,338.955 94.657,339.296 94.621 C 339.637 94.585,339.317 94.557,338.583 94.557 C 337.850 94.558,337.571 94.587,337.963 94.622 M92.124 94.986 C 91.439 95.425,91.344 95.579,91.948 95.272 C 92.240 95.124,92.526 94.927,92.583 94.835 C 92.716 94.618,92.676 94.631,92.124 94.986 M70.833 95.410 C 70.833 95.456,71.133 95.646,71.500 95.833 C 71.867 96.020,72.167 96.136,72.167 96.090 C 72.167 96.044,71.867 95.854,71.500 95.667 C 71.133 95.480,70.833 95.364,70.833 95.410 M89.583 96.333 C 89.217 96.503,88.975 96.648,89.047 96.654 C 89.244 96.673,90.333 96.197,90.333 96.092 C 90.333 95.979,90.385 95.962,89.583 96.333 M87.250 97.167 C 87.040 97.257,87.009 97.310,87.167 97.310 C 87.304 97.310,87.567 97.245,87.750 97.167 C 87.960 97.076,87.991 97.023,87.833 97.023 C 87.696 97.023,87.433 97.088,87.250 97.167 M85.250 97.667 C 84.801 97.781,84.792 97.794,85.167 97.797 C 85.396 97.799,85.771 97.740,86.000 97.667 C 86.560 97.487,85.955 97.487,85.250 97.667 M79.458 98.118 C 79.665 98.157,80.002 98.157,80.208 98.118 C 80.415 98.078,80.246 98.045,79.833 98.045 C 79.421 98.045,79.252 98.078,79.458 98.118 M82.042 98.119 C 82.294 98.158,82.706 98.158,82.958 98.119 C 83.210 98.081,83.004 98.050,82.500 98.050 C 81.996 98.050,81.790 98.081,82.042 98.119 M310.542 103.250 C 310.544 103.617,310.578 103.747,310.618 103.540 C 310.658 103.332,310.656 103.032,310.615 102.873 C 310.573 102.714,310.540 102.883,310.542 103.250 M140.417 104.235 C 138.844 104.934,138.667 105.616,138.667 110.966 C 138.667 116.482,138.410 115.854,142.402 120.128 C 145.500 123.444,145.795 123.667,147.097 123.667 C 148.424 123.667,148.368 123.709,151.771 120.082 C 154.424 117.254,155.156 116.387,155.200 116.026 C 155.218 115.874,155.278 116.575,155.333 117.583 C 155.393 118.675,155.447 116.845,155.467 113.063 C 155.517 103.392,156.091 104.006,147.000 104.010 C 142.297 104.012,140.803 104.063,140.417 104.235 M310.539 104.833 C 310.539 105.154,310.573 105.285,310.615 105.125 C 310.657 104.965,310.657 104.702,310.615 104.542 C 310.573 104.381,310.539 104.513,310.539 104.833 M310.836 106.597 C 310.837 106.773,310.915 107.029,311.008 107.167 C 311.131 107.349,311.147 107.282,311.065 106.917 C 310.928 106.304,310.832 106.171,310.836 106.597 M328.213 107.837 C 328.020 108.293,327.897 108.667,327.940 108.667 C 328.053 108.667,328.707 107.152,328.629 107.073 C 328.593 107.037,328.405 107.381,328.213 107.837 M311.335 107.939 C 311.330 108.592,313.753 111.379,314.737 111.852 C 314.927 111.943,314.858 111.851,314.583 111.646 C 313.648 110.950,312.361 109.537,311.848 108.642 C 311.567 108.151,311.336 107.835,311.335 107.939 M327.132 109.645 C 326.799 110.091,326.164 110.744,325.721 111.095 C 324.624 111.965,324.515 112.076,325.000 111.826 C 325.511 111.563,327.371 109.723,327.645 109.208 C 327.959 108.620,327.790 108.764,327.132 109.645 M261.875 109.782 C 262.035 109.823,262.298 109.823,262.458 109.782 C 262.619 109.740,262.487 109.705,262.167 109.705 C 261.846 109.705,261.715 109.740,261.875 109.782 M315.167 112.082 C 315.167 112.196,316.187 112.702,316.263 112.625 C 316.300 112.589,316.068 112.435,315.748 112.283 C 315.428 112.130,315.167 112.040,315.167 112.082 M323.833 112.333 C 323.512 112.509,323.310 112.656,323.383 112.660 C 323.560 112.669,324.500 112.180,324.500 112.079 C 324.500 111.970,324.490 111.974,323.833 112.333 M316.917 112.916 C 317.192 113.046,317.604 113.149,317.833 113.145 L 318.250 113.138 317.833 113.013 C 317.604 112.944,317.192 112.841,316.917 112.784 L 316.417 112.680 316.917 112.916 M322.167 112.917 C 321.646 113.067,321.544 113.137,321.833 113.143 C 322.063 113.148,322.475 113.049,322.750 112.923 C 323.376 112.636,323.143 112.634,322.167 112.917 M318.625 113.284 C 318.831 113.324,319.169 113.324,319.375 113.284 C 319.581 113.245,319.412 113.212,319.000 113.212 C 318.587 113.212,318.419 113.245,318.625 113.284 M320.211 113.286 C 320.464 113.325,320.839 113.324,321.044 113.284 C 321.249 113.244,321.042 113.213,320.583 113.214 C 320.125 113.216,319.957 113.248,320.211 113.286 M124.276 120.576 C 123.535 120.841,122.919 121.371,122.526 122.083 C 122.280 122.530,122.250 123.471,122.250 130.859 L 122.250 139.136 122.760 139.776 C 123.839 141.132,124.107 141.186,129.534 141.131 C 133.009 141.096,134.372 141.028,134.519 140.881 C 134.678 140.722,134.589 140.715,134.104 140.849 C 132.982 141.159,124.521 140.973,123.884 140.625 C 122.684 139.969,122.422 139.346,122.366 137.013 C 122.317 134.998,122.325 134.936,122.586 135.416 C 123.425 136.965,123.575 137.000,129.370 136.999 C 135.290 136.999,134.045 137.584,139.871 132.056 C 141.350 130.653,141.350 130.653,141.709 131.375 C 141.857 131.673,141.983 131.800,141.989 131.657 C 141.995 131.514,141.899 131.258,141.775 131.089 C 141.582 130.826,141.598 130.637,141.885 129.797 C 142.498 128.001,142.280 127.636,138.464 124.076 C 134.174 120.073,134.805 120.332,129.347 120.341 C 126.033 120.346,124.755 120.406,124.276 120.576 M159.886 120.512 C 159.344 120.674,158.575 121.335,154.724 124.952 C 151.983 127.526,151.361 129.005,152.414 130.440 C 152.607 130.703,152.605 130.791,152.397 131.021 C 152.262 131.170,152.119 131.583,152.079 131.938 C 152.015 132.504,152.022 132.522,152.141 132.083 C 152.587 130.427,152.372 130.333,156.138 133.831 C 159.938 137.361,158.986 137.033,165.250 136.967 C 170.694 136.910,170.765 136.894,171.452 135.515 L 171.750 134.917 171.798 136.543 C 171.919 140.663,171.282 141.046,164.444 140.968 C 159.287 140.910,159.641 140.998,157.878 139.324 C 157.349 138.822,155.922 137.482,154.706 136.348 C 152.832 134.598,152.460 134.168,152.260 133.517 C 152.086 132.954,152.020 132.863,152.012 133.175 C 151.992 133.907,152.783 134.829,155.943 137.750 C 159.915 141.423,159.223 141.158,164.833 141.159 C 172.426 141.160,172.093 141.668,171.924 130.333 C 171.793 121.606,171.830 121.847,170.513 120.917 L 169.805 120.417 165.111 120.385 C 162.526 120.368,160.178 120.425,159.886 120.512 M139.500 121.052 C 139.500 121.081,139.744 121.325,140.042 121.594 L 140.583 122.083 140.094 121.542 C 139.638 121.037,139.500 120.923,139.500 121.052 M198.028 121.589 C 193.051 122.669,189.896 128.310,191.669 132.954 C 194.163 139.484,202.154 141.133,206.667 136.050 C 207.327 135.307,208.500 133.181,208.500 132.727 C 208.500 132.617,208.593 132.497,208.708 132.459 C 209.051 132.344,208.970 128.967,208.595 127.750 C 207.190 123.188,202.706 120.574,198.028 121.589 M153.167 122.417 C 152.762 122.829,152.468 123.167,152.514 123.167 C 152.560 123.167,152.928 122.829,153.333 122.417 C 153.738 122.004,154.032 121.667,153.986 121.667 C 153.940 121.667,153.572 122.004,153.167 122.417 M142.250 124.000 C 142.608 124.367,142.938 124.667,142.984 124.667 C 143.030 124.667,142.775 124.367,142.417 124.000 C 142.059 123.633,141.728 123.333,141.682 123.333 C 141.637 123.333,141.892 123.633,142.250 124.000 M150.909 124.875 L 150.250 125.583 150.958 124.925 C 151.617 124.312,151.743 124.167,151.617 124.167 C 151.590 124.167,151.271 124.485,150.909 124.875 M144.667 126.583 C 144.978 126.904,145.270 127.167,145.315 127.167 C 145.361 127.167,145.144 126.904,144.833 126.583 C 144.522 126.263,144.230 126.000,144.185 126.000 C 144.139 126.000,144.356 126.263,144.667 126.583 M239.404 135.108 C 239.436 138.816,239.518 140.921,239.643 141.250 L 239.834 141.750 239.724 141.167 C 239.664 140.846,239.596 138.122,239.573 135.113 C 239.550 132.104,239.491 129.602,239.443 129.554 C 239.394 129.506,239.377 132.005,239.404 135.108 M142.045 132.667 C 142.045 133.079,142.078 133.248,142.118 133.042 C 142.157 132.835,142.157 132.498,142.118 132.292 C 142.078 132.085,142.045 132.254,142.045 132.667 M208.892 134.083 C 208.892 134.908,208.920 135.267,208.955 134.880 C 208.990 134.493,208.990 133.818,208.956 133.380 C 208.922 132.942,208.893 133.258,208.892 134.083 M141.680 133.968 C 141.571 134.231,140.642 135.222,139.616 136.169 C 136.624 138.930,134.809 140.667,134.914 140.667 C 135.009 140.667,138.639 137.335,140.789 135.275 C 141.360 134.728,141.873 134.136,141.929 133.961 C 142.094 133.442,141.895 133.448,141.680 133.968 M145.750 133.986 C 145.336 134.180,144.459 134.983,143.436 136.107 C 142.530 137.102,141.283 138.442,140.666 139.083 C 140.048 139.725,139.346 140.542,139.105 140.898 L 138.667 141.547 138.667 146.331 C 138.667 153.838,138.267 153.500,147.127 153.500 L 153.268 153.500 154.021 153.022 C 154.479 152.732,154.868 152.323,155.012 151.981 C 155.242 151.436,155.253 151.484,155.342 153.333 C 155.392 154.387,155.444 152.250,155.457 148.583 C 155.486 140.517,155.823 141.613,152.083 137.589 C 148.351 133.573,147.575 133.132,145.750 133.986 M191.338 136.189 C 191.317 138.260,195.523 142.691,197.481 142.663 C 197.629 142.661,197.313 142.479,196.778 142.259 C 194.248 141.219,192.615 139.469,191.713 136.833 C 191.469 136.122,191.340 135.901,191.338 136.189 M208.288 137.196 C 208.137 137.667,208.077 137.985,208.153 137.901 C 208.335 137.705,208.721 136.498,208.631 136.409 C 208.593 136.371,208.438 136.725,208.288 137.196 M281.385 137.417 C 281.386 137.967,281.417 138.172,281.454 137.872 C 281.491 137.572,281.490 137.122,281.452 136.872 C 281.414 136.622,281.384 136.867,281.385 137.417 M207.602 138.631 C 207.198 139.412,205.693 140.970,204.887 141.443 C 204.483 141.680,204.191 141.913,204.239 141.962 C 204.367 142.089,205.486 141.280,206.319 140.459 C 207.127 139.661,208.077 138.355,207.945 138.223 C 207.897 138.175,207.743 138.359,207.602 138.631 M391.848 141.038 C 387.851 181.975,370.263 209.573,344.974 214.587 L 343.531 214.873 343.853 215.807 C 347.781 227.225,350.999 244.661,351.442 256.936 C 351.564 260.320,351.506 260.212,352.792 259.453 C 353.090 259.278,353.333 259.184,353.333 259.245 C 353.333 259.306,353.561 259.194,353.839 258.996 C 354.118 258.798,354.448 258.620,354.573 258.602 C 354.697 258.584,354.901 258.491,355.025 258.396 C 355.534 258.007,356.834 257.329,356.836 257.451 C 356.837 257.524,356.894 257.499,356.961 257.397 C 357.028 257.294,357.646 256.843,358.333 256.394 C 359.826 255.420,362.044 253.790,362.511 253.323 C 362.695 253.139,362.929 253.040,363.032 253.103 C 363.138 253.169,363.172 253.143,363.111 253.044 C 362.998 252.861,364.151 251.885,364.387 251.963 C 364.463 251.988,364.483 251.941,364.433 251.860 C 364.382 251.778,364.489 251.577,364.671 251.413 C 364.852 251.249,365.000 251.151,365.000 251.194 C 365.000 251.238,365.657 250.631,366.459 249.845 C 367.262 249.059,367.900 248.369,367.878 248.311 C 367.856 248.253,368.172 247.897,368.582 247.519 C 368.991 247.142,369.278 246.833,369.220 246.833 C 369.162 246.833,369.249 246.685,369.413 246.504 C 369.577 246.323,369.775 246.214,369.854 246.263 C 369.932 246.311,369.954 246.240,369.902 246.104 C 369.842 245.950,369.965 245.775,370.228 245.637 C 370.459 245.516,370.662 245.342,370.678 245.250 C 370.734 244.921,371.116 244.505,371.250 244.626 C 371.325 244.694,371.340 244.668,371.282 244.567 C 371.141 244.319,372.150 242.970,372.374 243.108 C 372.478 243.173,372.503 243.139,372.433 243.027 C 372.368 242.921,372.520 242.633,372.778 242.376 C 373.032 242.124,373.243 241.829,373.245 241.723 C 373.248 241.616,373.413 241.341,373.611 241.112 C 373.810 240.883,373.938 240.660,373.894 240.617 C 373.851 240.573,374.017 240.379,374.264 240.186 C 374.510 239.992,374.660 239.833,374.596 239.833 C 374.533 239.833,374.612 239.612,374.771 239.342 C 374.931 239.072,375.134 238.896,375.223 238.951 C 375.312 239.006,375.337 238.973,375.277 238.878 C 375.218 238.782,375.657 237.901,376.252 236.920 C 376.847 235.939,377.333 235.099,377.333 235.052 C 377.333 235.006,377.481 234.761,377.662 234.507 C 377.842 234.253,377.954 234.010,377.910 233.966 C 377.866 233.922,378.010 233.691,378.231 233.453 C 378.451 233.215,378.599 232.988,378.560 232.949 C 378.520 232.909,378.751 232.352,379.073 231.710 C 379.395 231.068,379.733 230.346,379.825 230.105 C 379.917 229.864,380.056 229.667,380.135 229.667 C 380.213 229.667,380.278 229.573,380.279 229.458 C 380.281 229.279,380.778 228.050,381.577 226.250 C 381.934 225.446,382.447 224.159,382.840 223.083 C 383.041 222.533,383.319 221.821,383.458 221.500 C 383.598 221.179,383.769 220.692,383.838 220.417 C 383.908 220.142,384.096 219.542,384.257 219.083 C 384.782 217.586,385.114 216.600,385.420 215.625 C 385.585 215.098,385.771 214.667,385.833 214.667 C 385.894 214.667,385.931 214.498,385.915 214.292 C 385.899 214.085,386.055 213.416,386.262 212.805 C 386.468 212.194,386.607 211.662,386.568 211.624 C 386.530 211.586,386.652 211.111,386.839 210.569 C 387.026 210.027,387.210 209.358,387.248 209.083 C 387.286 208.808,387.443 208.171,387.597 207.667 C 387.752 207.162,387.888 206.600,387.901 206.417 C 387.944 205.812,388.384 204.167,388.504 204.167 C 388.568 204.167,388.598 203.960,388.569 203.708 C 388.541 203.456,388.669 202.652,388.855 201.921 C 389.041 201.189,389.199 200.439,389.207 200.254 C 389.214 200.068,389.390 199.140,389.598 198.190 C 389.806 197.241,389.939 196.367,389.893 196.249 C 389.848 196.131,389.892 195.983,389.991 195.922 C 390.091 195.861,390.133 195.747,390.085 195.670 C 390.038 195.593,390.111 194.996,390.248 194.345 C 390.385 193.693,390.529 192.730,390.569 192.205 C 390.650 191.144,390.973 189.054,391.116 188.667 C 391.167 188.529,391.235 187.967,391.266 187.417 C 391.298 186.867,391.332 186.304,391.343 186.167 C 391.353 186.029,391.506 184.842,391.683 183.529 C 391.859 182.216,391.967 181.081,391.921 181.007 C 391.875 180.933,391.990 179.420,392.175 177.644 C 392.361 175.869,392.545 173.367,392.584 172.083 C 392.623 170.800,392.731 168.175,392.824 166.250 C 393.041 161.755,393.041 154.852,392.824 150.500 C 392.730 148.621,392.622 146.045,392.583 144.776 C 392.521 142.721,392.218 139.162,392.094 139.039 C 392.069 139.013,391.958 139.913,391.848 141.038 M7.944 139.578 C 7.873 139.759,7.776 140.619,7.729 141.490 C 7.681 142.360,7.609 143.126,7.569 143.190 C 6.996 144.117,7.217 171.606,7.837 176.583 C 7.928 177.317,8.040 178.742,8.086 179.750 C 8.131 180.758,8.315 182.626,8.495 183.900 C 8.675 185.174,8.787 186.273,8.744 186.342 C 8.702 186.412,8.851 187.575,9.077 188.927 C 9.302 190.280,9.459 191.431,9.426 191.485 C 9.392 191.540,9.543 192.514,9.760 193.650 C 9.978 194.787,10.126 195.764,10.091 195.822 C 10.055 195.880,10.174 196.562,10.355 197.339 C 10.536 198.115,10.718 199.080,10.759 199.484 C 10.800 199.887,10.912 200.508,11.008 200.863 C 11.103 201.217,11.136 201.581,11.081 201.671 C 11.026 201.760,11.069 201.833,11.176 201.833 C 11.290 201.833,11.336 201.973,11.285 202.167 C 11.237 202.350,11.265 202.500,11.347 202.500 C 11.429 202.500,11.472 202.744,11.443 203.042 C 11.414 203.340,11.440 203.658,11.500 203.750 C 11.653 203.986,12.006 205.255,12.080 205.839 C 12.114 206.109,12.269 206.762,12.425 207.290 C 12.580 207.818,12.725 208.475,12.747 208.750 C 12.768 209.025,12.872 209.463,12.977 209.722 C 13.083 209.982,13.131 210.257,13.083 210.333 C 13.036 210.409,13.075 210.497,13.168 210.528 C 13.262 210.560,13.371 210.841,13.411 211.153 C 13.450 211.465,13.643 212.215,13.838 212.819 C 14.034 213.423,14.327 214.329,14.489 214.833 C 14.651 215.338,14.770 215.919,14.753 216.125 C 14.736 216.331,14.779 216.500,14.848 216.500 C 14.972 216.500,15.283 217.304,15.406 217.943 C 15.440 218.122,15.588 218.555,15.735 218.906 C 15.882 219.257,16.034 219.703,16.073 219.897 C 16.138 220.220,16.307 220.670,17.178 222.833 C 17.344 223.246,17.680 224.105,17.925 224.742 C 18.436 226.071,18.742 226.805,19.178 227.750 C 20.153 229.862,20.480 230.610,20.529 230.833 C 20.559 230.971,20.643 231.128,20.717 231.182 C 20.790 231.236,20.862 231.439,20.877 231.633 C 20.891 231.827,20.942 231.947,20.989 231.900 C 21.036 231.853,21.226 232.115,21.412 232.483 C 21.598 232.850,22.064 233.747,22.447 234.476 C 22.831 235.204,23.093 235.857,23.030 235.927 C 22.968 235.996,22.998 236.007,23.098 235.951 C 23.197 235.894,23.404 236.088,23.557 236.382 C 23.710 236.676,24.024 237.217,24.255 237.583 C 24.485 237.950,24.721 238.362,24.778 238.500 C 24.836 238.637,25.030 238.913,25.209 239.113 C 25.388 239.312,25.485 239.556,25.424 239.654 C 25.363 239.753,25.396 239.833,25.496 239.833 C 25.694 239.833,26.442 241.004,26.375 241.208 C 26.352 241.277,26.427 241.315,26.542 241.292 C 26.656 241.269,26.740 241.380,26.727 241.540 C 26.715 241.699,26.755 241.799,26.816 241.761 C 26.877 241.723,27.113 241.967,27.339 242.304 C 27.565 242.641,27.862 243.008,28.000 243.120 C 28.137 243.231,28.175 243.326,28.083 243.331 C 27.988 243.335,27.997 243.391,28.103 243.461 C 28.206 243.528,28.683 244.108,29.164 244.750 C 29.645 245.392,30.173 246.035,30.336 246.180 C 30.979 246.748,32.308 248.470,32.199 248.592 C 32.135 248.662,32.164 248.674,32.262 248.618 C 32.465 248.503,35.058 251.038,34.922 251.217 C 34.873 251.281,34.880 251.299,34.938 251.256 C 35.115 251.126,36.504 252.359,36.389 252.544 C 36.330 252.640,36.355 252.673,36.445 252.617 C 36.535 252.562,36.952 252.831,37.371 253.217 C 37.790 253.602,38.166 253.917,38.204 253.917 C 38.401 253.917,40.667 255.687,40.667 255.841 C 40.667 255.939,40.742 255.973,40.833 255.917 C 40.925 255.860,41.000 255.906,41.000 256.018 C 41.000 256.130,41.051 256.171,41.113 256.109 C 41.176 256.046,41.450 256.203,41.723 256.456 C 41.995 256.709,42.165 256.824,42.100 256.710 C 41.954 256.454,43.067 257.123,43.592 257.607 C 43.805 257.804,44.020 257.924,44.070 257.874 C 44.120 257.825,44.443 257.975,44.789 258.209 C 45.134 258.442,45.587 258.684,45.794 258.745 C 46.002 258.807,46.138 258.911,46.097 258.977 C 46.056 259.043,46.183 259.110,46.379 259.124 C 46.782 259.155,47.833 259.683,47.833 259.856 C 47.833 259.918,47.974 259.932,48.146 259.887 C 48.515 259.791,48.667 258.954,48.667 257.018 C 48.668 250.746,50.275 239.154,52.430 229.869 C 53.517 225.184,54.358 222.050,55.857 217.101 C 56.214 215.919,56.484 214.928,56.455 214.900 C 56.427 214.871,55.544 214.665,54.493 214.441 C 29.690 209.156,12.633 182.345,8.355 141.917 C 8.176 140.233,8.025 139.371,7.944 139.578 M281.100 140.309 C 281.034 140.892,281.015 141.404,281.059 141.448 C 281.170 141.559,281.386 139.741,281.295 139.470 C 281.254 139.349,281.166 139.727,281.100 140.309 M203.167 142.333 C 202.754 142.506,202.513 142.652,202.630 142.657 C 202.900 142.669,204.000 142.215,204.000 142.092 C 204.000 141.977,204.054 141.961,203.167 142.333 M240.024 142.750 C 240.025 143.098,240.467 144.375,240.485 144.083 C 240.490 143.992,240.389 143.579,240.259 143.167 C 240.129 142.754,240.023 142.567,240.024 142.750 M199.250 142.996 C 199.708 143.061,200.458 143.060,200.917 142.994 C 201.583 142.899,201.416 142.875,200.083 142.876 C 198.752 142.878,198.584 142.902,199.250 142.996 M280.348 143.682 C 280.236 144.058,280.174 144.396,280.212 144.434 C 280.249 144.471,280.372 144.194,280.485 143.818 C 280.598 143.442,280.659 143.104,280.622 143.066 C 280.584 143.029,280.461 143.306,280.348 143.682 M240.679 144.833 C 240.679 145.074,241.149 146.028,241.161 145.811 C 241.164 145.753,241.057 145.453,240.923 145.144 C 240.789 144.836,240.679 144.696,240.679 144.833 M279.349 146.265 C 278.550 148.040,277.088 150.180,275.488 151.917 C 274.344 153.158,274.285 153.244,275.150 152.417 C 277.008 150.637,280.395 145.506,279.984 145.095 C 279.943 145.054,279.657 145.580,279.349 146.265 M241.333 146.397 C 241.333 146.576,241.829 147.500,241.925 147.500 C 241.971 147.500,241.885 147.256,241.733 146.958 C 241.424 146.350,241.333 146.223,241.333 146.397 M242.324 148.267 C 243.587 150.562,246.620 153.702,248.917 155.092 C 249.656 155.539,249.239 155.173,247.905 154.203 C 246.347 153.070,244.123 150.739,243.021 149.083 C 241.992 147.537,241.797 147.308,242.324 148.267 M272.750 154.270 C 272.108 154.767,270.969 155.489,270.219 155.875 C 269.469 156.261,268.880 156.602,268.911 156.633 C 269.116 156.838,273.740 153.985,273.907 153.549 C 273.952 153.431,273.973 153.341,273.953 153.349 C 273.933 153.358,273.392 153.772,272.750 154.270 M138.680 154.967 C 138.652 155.768,139.953 157.342,140.631 157.327 C 140.797 157.323,140.704 157.228,140.408 157.099 C 139.785 156.827,139.034 155.962,138.902 155.362 C 138.745 154.649,138.694 154.558,138.680 154.967 M154.913 155.964 C 154.730 156.303,154.287 156.742,153.917 156.951 C 153.529 157.170,153.372 157.329,153.541 157.331 C 153.903 157.334,155.115 156.259,155.258 155.808 C 155.438 155.242,155.258 155.323,154.913 155.964 M249.500 155.408 C 249.500 155.454,249.725 155.608,250.000 155.750 C 250.275 155.892,250.500 155.971,250.500 155.925 C 250.500 155.879,250.275 155.726,250.000 155.583 C 249.725 155.441,249.500 155.362,249.500 155.408 M250.667 156.095 C 250.667 156.238,252.531 157.024,252.632 156.924 C 252.682 156.874,252.682 156.833,252.632 156.833 C 252.582 156.833,252.120 156.647,251.604 156.419 C 251.088 156.191,250.667 156.045,250.667 156.095 M267.583 157.077 C 267.308 157.203,267.196 157.310,267.333 157.314 C 267.471 157.318,267.771 157.214,268.000 157.083 C 268.531 156.780,268.242 156.776,267.583 157.077 M144.053 157.458 C 145.777 157.485,148.552 157.485,150.219 157.458 C 151.886 157.431,150.475 157.409,147.083 157.409 C 143.692 157.409,142.328 157.431,144.053 157.458 M265.333 157.750 C 264.921 157.870,264.733 157.969,264.917 157.971 C 265.100 157.973,265.550 157.876,265.917 157.755 C 266.780 157.470,266.312 157.466,265.333 157.750 M255.083 157.833 C 255.267 157.912,255.604 157.974,255.833 157.972 L 256.250 157.967 255.833 157.833 C 255.604 157.760,255.267 157.698,255.083 157.695 L 254.750 157.690 255.083 157.833 M257.375 158.282 C 257.535 158.323,257.798 158.323,257.958 158.282 C 258.119 158.240,257.987 158.205,257.667 158.205 C 257.346 158.205,257.215 158.240,257.375 158.282 M260.417 158.333 L 258.250 158.432 260.250 158.454 C 261.350 158.466,262.587 158.415,263.000 158.342 C 263.893 158.183,263.731 158.182,260.417 158.333 " stroke="none" fill="#b394f3" fill-rule="evenodd"></path><path id="path4" d="M201.708 15.448 C 201.869 15.490,202.131 15.490,202.292 15.448 C 202.452 15.406,202.321 15.372,202.000 15.372 C 201.679 15.372,201.548 15.406,201.708 15.448 M195.125 15.622 C 195.515 15.657,196.152 15.657,196.542 15.622 C 196.931 15.587,196.612 15.558,195.833 15.558 C 195.054 15.558,194.735 15.587,195.125 15.622 M203.375 15.623 C 203.810 15.657,204.523 15.657,204.958 15.623 C 205.394 15.588,205.037 15.560,204.167 15.560 C 203.296 15.560,202.940 15.588,203.375 15.623 M191.708 15.789 C 192.144 15.824,192.856 15.824,193.292 15.789 C 193.727 15.755,193.371 15.727,192.500 15.727 C 191.629 15.727,191.273 15.755,191.708 15.789 M207.047 15.789 C 207.485 15.824,208.160 15.823,208.547 15.788 C 208.934 15.754,208.575 15.725,207.750 15.726 C 206.925 15.726,206.609 15.755,207.047 15.789 M188.380 15.956 C 188.818 15.990,189.493 15.990,189.880 15.955 C 190.267 15.920,189.908 15.892,189.083 15.892 C 188.258 15.893,187.942 15.922,188.380 15.956 M210.213 15.956 C 210.652 15.990,211.327 15.990,211.713 15.955 C 212.100 15.920,211.742 15.892,210.917 15.892 C 210.092 15.893,209.775 15.922,210.213 15.956 M181.629 16.122 C 182.021 16.157,182.621 16.157,182.963 16.121 C 183.304 16.085,182.983 16.057,182.250 16.057 C 181.517 16.058,181.237 16.087,181.629 16.122 M184.963 16.122 C 185.355 16.157,185.955 16.157,186.296 16.121 C 186.637 16.085,186.317 16.057,185.583 16.057 C 184.850 16.058,184.571 16.087,184.963 16.122 M213.788 16.120 C 214.084 16.157,214.609 16.158,214.955 16.122 C 215.300 16.086,215.058 16.055,214.417 16.055 C 213.775 16.054,213.492 16.083,213.788 16.120 M216.464 16.123 C 216.948 16.157,217.698 16.156,218.131 16.122 C 218.563 16.088,218.167 16.060,217.250 16.061 C 216.333 16.061,215.980 16.089,216.464 16.123 M178.629 16.289 C 179.021 16.324,179.621 16.324,179.963 16.288 C 180.304 16.252,179.983 16.223,179.250 16.224 C 178.517 16.224,178.237 16.254,178.629 16.289 M220.463 16.289 C 220.855 16.324,221.455 16.324,221.796 16.288 C 222.137 16.252,221.817 16.223,221.083 16.224 C 220.350 16.224,220.071 16.254,220.463 16.289 M175.296 16.456 C 175.688 16.491,176.288 16.490,176.629 16.454 C 176.971 16.419,176.650 16.390,175.917 16.390 C 175.183 16.391,174.904 16.420,175.296 16.456 M223.625 16.455 C 224.015 16.490,224.652 16.490,225.042 16.455 C 225.431 16.420,225.112 16.392,224.333 16.392 C 223.554 16.392,223.235 16.420,223.625 16.455 M171.792 16.622 C 172.181 16.657,172.819 16.657,173.208 16.622 C 173.598 16.587,173.279 16.558,172.500 16.558 C 171.721 16.558,171.402 16.587,171.792 16.622 M226.958 16.622 C 227.348 16.657,227.985 16.657,228.375 16.622 C 228.765 16.587,228.446 16.558,227.667 16.558 C 226.887 16.558,226.569 16.587,226.958 16.622 M165.544 16.786 C 165.797 16.825,166.172 16.824,166.377 16.784 C 166.582 16.744,166.375 16.713,165.917 16.714 C 165.458 16.716,165.291 16.748,165.544 16.786 M168.455 16.787 C 168.750 16.824,169.275 16.824,169.621 16.788 C 169.967 16.752,169.725 16.722,169.083 16.721 C 168.442 16.721,168.159 16.750,168.455 16.787 M230.708 16.786 C 230.960 16.824,231.373 16.824,231.625 16.786 C 231.877 16.748,231.671 16.717,231.167 16.717 C 230.662 16.717,230.456 16.748,230.708 16.786 M234.125 16.784 C 234.331 16.824,234.669 16.824,234.875 16.784 C 235.081 16.745,234.912 16.712,234.500 16.712 C 234.088 16.712,233.919 16.745,234.125 16.784 M161.875 16.955 C 162.219 16.991,162.781 16.991,163.125 16.955 C 163.469 16.919,163.188 16.889,162.500 16.889 C 161.813 16.889,161.531 16.919,161.875 16.955 M236.955 16.954 C 237.250 16.990,237.775 16.991,238.121 16.955 C 238.467 16.919,238.225 16.889,237.583 16.888 C 236.942 16.887,236.659 16.917,236.955 16.954 M158.463 17.122 C 158.855 17.157,159.455 17.157,159.796 17.121 C 160.137 17.085,159.817 17.057,159.083 17.057 C 158.350 17.058,158.071 17.087,158.463 17.122 M240.296 17.122 C 240.688 17.157,241.288 17.157,241.629 17.121 C 241.971 17.085,241.650 17.057,240.917 17.057 C 240.183 17.058,239.904 17.087,240.296 17.122 M155.129 17.289 C 155.521 17.324,156.121 17.324,156.463 17.288 C 156.804 17.252,156.483 17.223,155.750 17.224 C 155.017 17.224,154.737 17.254,155.129 17.289 M243.708 17.288 C 244.052 17.324,244.615 17.324,244.958 17.288 C 245.302 17.252,245.021 17.223,244.333 17.223 C 243.646 17.223,243.365 17.252,243.708 17.288 M148.794 17.451 C 149.001 17.491,149.301 17.490,149.460 17.448 C 149.620 17.406,149.450 17.374,149.083 17.375 C 148.717 17.377,148.586 17.411,148.794 17.451 M151.875 17.453 C 152.127 17.491,152.540 17.491,152.792 17.453 C 153.044 17.415,152.837 17.383,152.333 17.383 C 151.829 17.383,151.623 17.415,151.875 17.453 M247.461 17.454 C 247.761 17.491,248.211 17.490,248.461 17.452 C 248.712 17.414,248.467 17.384,247.917 17.385 C 247.367 17.386,247.162 17.417,247.461 17.454 M250.458 17.451 C 250.665 17.491,251.002 17.491,251.208 17.451 C 251.415 17.411,251.246 17.379,250.833 17.379 C 250.421 17.379,250.252 17.411,250.458 17.451 M145.208 17.621 C 145.552 17.657,146.115 17.657,146.458 17.621 C 146.802 17.585,146.521 17.556,145.833 17.556 C 145.146 17.556,144.865 17.585,145.208 17.621 M253.708 17.621 C 254.052 17.657,254.615 17.657,254.958 17.621 C 255.302 17.585,255.021 17.556,254.333 17.556 C 253.646 17.556,253.365 17.585,253.708 17.621 M141.958 17.787 C 142.256 17.824,142.744 17.824,143.042 17.787 C 143.340 17.750,143.096 17.720,142.500 17.720 C 141.904 17.720,141.660 17.750,141.958 17.787 M257.292 17.787 C 257.590 17.824,258.077 17.824,258.375 17.787 C 258.673 17.750,258.429 17.720,257.833 17.720 C 257.237 17.720,256.994 17.750,257.292 17.787 M138.455 17.954 C 138.750 17.990,139.275 17.991,139.621 17.955 C 139.967 17.919,139.725 17.889,139.083 17.888 C 138.442 17.887,138.159 17.917,138.455 17.954 M260.628 17.954 C 260.928 17.991,261.378 17.990,261.628 17.952 C 261.878 17.914,261.633 17.884,261.083 17.885 C 260.533 17.886,260.328 17.917,260.628 17.954 M132.292 18.121 C 132.590 18.158,133.077 18.158,133.375 18.121 C 133.673 18.084,133.429 18.053,132.833 18.053 C 132.237 18.053,131.994 18.084,132.292 18.121 M135.294 18.118 C 135.501 18.158,135.801 18.156,135.960 18.115 C 136.120 18.073,135.950 18.040,135.583 18.042 C 135.217 18.044,135.086 18.078,135.294 18.118 M263.958 18.118 C 264.165 18.157,264.502 18.157,264.708 18.118 C 264.915 18.078,264.746 18.045,264.333 18.045 C 263.921 18.045,263.752 18.078,263.958 18.118 M267.294 18.118 C 267.501 18.158,267.801 18.156,267.960 18.115 C 268.120 18.073,267.950 18.040,267.583 18.042 C 267.217 18.044,267.086 18.078,267.294 18.118 M128.621 18.287 C 128.917 18.324,129.442 18.324,129.788 18.288 C 130.134 18.252,129.892 18.222,129.250 18.221 C 128.608 18.221,128.325 18.250,128.621 18.287 M270.628 18.287 C 270.928 18.325,271.378 18.324,271.628 18.286 C 271.878 18.248,271.633 18.217,271.083 18.218 C 270.533 18.219,270.328 18.250,270.628 18.287 M111.961 18.954 C 112.261 18.991,112.711 18.990,112.961 18.952 C 113.212 18.914,112.967 18.884,112.417 18.885 C 111.867 18.886,111.662 18.917,111.961 18.954 M287.208 18.953 C 287.460 18.991,287.873 18.991,288.125 18.953 C 288.377 18.915,288.171 18.883,287.667 18.883 C 287.162 18.883,286.956 18.915,287.208 18.953 M131.387 100.799 C 120.166 114.020,110.302 127.094,100.997 141.081 C 97.661 146.095,93.833 152.065,93.833 152.253 C 93.833 152.316,94.452 151.785,95.208 151.073 C 102.339 144.358,111.316 138.800,120.833 135.206 L 122.083 134.734 122.167 128.575 L 122.250 122.417 122.695 121.733 C 123.549 120.420,123.961 120.333,129.290 120.338 C 134.973 120.343,134.220 120.040,138.467 124.025 C 142.194 127.521,142.410 127.850,142.039 129.471 C 141.821 130.424,141.624 130.336,143.586 130.168 C 144.501 130.090,146.787 129.973,148.667 129.908 L 152.083 129.790 152.031 128.937 C 151.951 127.643,152.406 127.005,155.333 124.302 C 156.754 122.990,158.142 121.703,158.417 121.441 C 159.526 120.387,159.794 120.341,164.797 120.337 C 171.122 120.332,171.833 120.690,171.833 123.882 C 171.833 124.651,171.882 126.305,171.943 127.557 L 172.052 129.833 181.609 129.833 L 191.167 129.833 191.167 129.399 C 191.167 126.832,193.375 123.590,196.008 122.291 C 201.417 119.624,207.796 122.796,208.846 128.675 L 209.053 129.833 224.180 129.833 L 239.307 129.833 239.408 128.708 C 240.376 117.985,249.490 109.680,260.333 109.642 C 272.656 109.598,282.390 120.131,281.341 132.375 C 281.260 133.315,281.244 134.521,281.306 135.056 L 281.417 136.028 283.925 137.150 C 291.267 140.434,297.717 144.643,303.992 150.249 C 305.326 151.440,306.297 152.227,306.152 151.999 C 306.006 151.770,305.257 150.571,304.487 149.333 C 295.136 134.307,280.942 115.065,268.617 100.708 L 266.292 98.000 200.021 98.007 L 133.750 98.014 131.387 100.799 M153.714 104.229 C 155.411 104.956,155.500 105.389,155.499 112.900 C 155.498 120.715,155.734 119.847,152.723 123.110 C 146.974 129.338,147.172 129.328,141.899 123.660 C 138.295 119.786,138.667 121.011,138.667 113.014 C 138.667 105.085,138.693 104.955,140.500 104.137 C 141.024 103.899,153.141 103.984,153.714 104.229 " stroke="none" fill="#ebe4fb" fill-rule="evenodd"></path></g></svg>